<?xml version="1.0" standalone="no"?>
<!DOCTYPE svg PUBLIC "-//W3C//DTD SVG 20010904//EN"
 "http://www.w3.org/TR/2001/REC-SVG-20010904/DTD/svg10.dtd">
<svg version="1.0" xmlns="http://www.w3.org/2000/svg"
 width="906.000000pt" height="906.000000pt" viewBox="0 0 906.000000 906.000000"
 preserveAspectRatio="xMidYMid meet">
<metadata>
Created by potrace 1.11, written by Peter Selinger 2001-2013
</metadata>
<g transform="translate(0.000000,906.000000) scale(0.100000,-0.100000)"
fill="#000000" stroke="none">
<path d="M5250 8039 c0 -5 5 -7 10 -4 6 3 10 8 10 11 0 2 -4 4 -10 4 -5 0 -10
-5 -10 -11z"/>
<path d="M5276 8035 c-3 -8 -3 -15 0 -15 3 0 12 7 20 15 13 13 13 15 1 15 -8
0 -17 -7 -21 -15z"/>
<path d="M5450 8035 c-7 -8 -16 -13 -19 -10 -4 2 -8 -2 -8 -10 0 -8 3 -15 6
-15 10 0 43 41 38 46 -2 3 -10 -2 -17 -11z"/>
<path d="M7306 8042 c-3 -5 1 -9 9 -9 8 0 12 4 9 9 -3 4 -7 8 -9 8 -2 0 -6 -4
-9 -8z"/>
<path d="M7346 8042 c-3 -5 1 -9 9 -9 8 0 12 4 9 9 -3 4 -7 8 -9 8 -2 0 -6 -4
-9 -8z"/>
<path d="M7386 8042 c-3 -4 4 -9 15 -9 23 -2 25 3 4 10 -8 4 -16 3 -19 -1z"/>
<path d="M7450 8040 c0 -5 5 -10 11 -10 5 0 7 5 4 10 -3 6 -8 10 -11 10 -2 0
-4 -4 -4 -10z"/>
<path d="M7930 8041 c0 -6 4 -13 10 -16 6 -3 7 1 4 9 -7 18 -14 21 -14 7z"/>
<path d="M7970 8039 c0 -5 5 -7 10 -4 6 3 10 8 10 11 0 2 -4 4 -10 4 -5 0 -10
-5 -10 -11z"/>
<path d="M8003 8031 c0 -11 5 -18 9 -15 4 3 5 11 1 19 -7 21 -12 19 -10 -4z"/>
<path d="M8033 8028 c1 -10 2 -18 4 -18 1 0 7 8 12 18 7 14 6 19 -4 19 -7 0
-13 -9 -12 -19z"/>
<path d="M8103 8031 c0 -11 5 -18 9 -15 4 3 5 11 1 19 -7 21 -12 19 -10 -4z"/>
<path d="M8137 8037 c-9 -23 8 -30 27 -11 20 19 21 31 2 15 -11 -9 -15 -9 -18
1 -3 8 -6 6 -11 -5z"/>
<path d="M8240 8043 c0 -7 1 -14 2 -15 1 -2 -4 -13 -11 -25 -10 -19 -9 -22 4
-17 8 3 13 10 10 14 -3 5 0 10 7 12 8 3 8 9 0 24 -6 10 -12 13 -12 7z"/>
<path d="M8273 8028 c1 -10 5 -18 10 -18 4 0 6 -4 3 -8 -3 -5 1 -9 9 -9 8 0
15 5 15 10 0 5 6 5 13 -1 10 -8 13 -6 14 9 2 20 -12 26 -22 9 -9 -15 -25 -12
-25 6 0 8 4 13 9 9 5 -3 12 -2 15 3 2 4 -6 8 -19 8 -16 0 -23 -5 -22 -18z"/>
<path d="M8360 8035 c-7 -8 -10 -21 -7 -29 3 -7 0 -20 -6 -27 -9 -10 -8 -10 6
1 10 7 15 20 12 28 -3 8 0 21 6 28 6 8 9 14 6 14 -2 0 -10 -7 -17 -15z"/>
<path d="M8389 8043 c-4 -32 -5 -85 -2 -70 5 18 18 23 27 8 3 -5 15 -11 26
-14 16 -4 18 -2 11 12 -5 9 -6 23 -1 31 4 7 6 20 3 27 -8 21 -22 -4 -18 -34 1
-14 -2 -22 -9 -20 -6 2 -10 12 -9 22 1 17 -26 55 -28 38z m16 -23 c3 -5 1 -10
-4 -10 -6 0 -11 5 -11 10 0 6 2 10 4 10 3 0 8 -4 11 -10z"/>
<path d="M8474 8033 c3 -7 1 -15 -4 -18 -15 -9 -12 -19 10 -45 11 -13 20 -19
20 -14 0 6 -5 15 -12 22 -7 7 -8 12 -2 12 6 0 15 -5 21 -11 8 -8 13 -8 17 0 4
6 12 11 19 11 8 0 8 -3 -1 -12 -14 -14 -16 -32 -3 -23 5 3 12 1 16 -4 3 -6 13
-7 23 -4 14 6 15 4 5 -8 -8 -10 -9 -19 -1 -29 8 -12 9 -12 4 2 -3 10 -1 20 5
23 5 4 7 11 4 16 -4 5 -2 9 3 9 17 0 22 -13 9 -29 -10 -14 -10 -14 4 -4 9 7
20 9 24 5 5 -4 5 -1 1 6 -4 6 -3 12 3 12 5 0 12 -6 15 -12 5 -10 7 -10 12 1 5
11 10 8 20 -10 7 -13 13 -19 13 -14 1 6 -3 17 -9 25 -6 10 -2 25 12 50 29 49
38 57 31 29 -3 -13 -12 -32 -20 -41 -10 -11 -12 -22 -5 -35 5 -10 7 -25 5 -33
-3 -9 1 -7 10 4 14 19 16 19 40 3 19 -12 28 -14 33 -5 4 6 3 8 -4 4 -7 -4 -10
1 -9 14 2 26 22 33 39 13 11 -14 11 -16 -4 -10 -12 4 -15 2 -11 -9 4 -12 8
-12 21 -2 13 11 14 9 8 -12 -5 -17 -4 -20 2 -12 7 11 10 10 16 -3 5 -13 9 -15
20 -6 7 6 17 7 21 3 5 -4 5 -1 1 6 -6 10 -11 10 -22 1 -24 -20 -15 2 13 32 30
32 57 41 29 10 -14 -15 -15 -24 -6 -40 13 -26 21 -27 14 -3 -5 14 -3 14 10 -2
9 -11 16 -15 16 -10 0 6 -5 15 -12 22 -9 9 -9 12 -1 12 7 0 19 -10 27 -22 9
-12 16 -17 16 -11 0 6 9 15 20 18 11 3 20 11 20 16 0 6 -10 3 -22 -5 -22 -16
-48 -7 -48 16 0 6 7 5 15 -2 13 -10 19 -10 35 5 18 16 20 16 26 1 6 -16 25
-23 23 -8 -1 4 0 9 1 12 1 3 3 29 4 58 2 43 -1 52 -15 52 -9 0 -19 -7 -23 -15
-3 -8 -1 -15 4 -15 6 0 10 5 10 10 0 6 5 10 11 10 8 0 8 -5 -1 -15 -10 -12
-10 -15 1 -15 11 0 11 -2 -1 -10 -11 -7 -11 -10 -2 -10 7 0 10 -5 6 -11 -4 -8
-9 -7 -15 2 -4 7 -5 17 -3 21 3 5 -8 6 -25 3 -23 -4 -31 -2 -31 10 0 8 -4 15
-10 15 -5 0 -9 -5 -7 -12 1 -7 -10 -12 -28 -13 -16 0 -37 -4 -45 -9 -8 -5 -12
-6 -8 -1 4 4 3 14 -3 21 -7 8 -7 14 1 19 6 4 18 -1 26 -11 12 -15 14 -15 11
-3 -3 9 1 16 8 16 8 0 11 -7 7 -16 -5 -14 -3 -14 14 0 25 21 54 21 46 0 -5
-14 -3 -14 11 -2 9 7 17 17 17 20 0 10 -292 7 -307 -2 -7 -5 -13 -4 -13 0 0 5
-50 9 -110 9 -83 -1 -109 -4 -106 -13z m214 -12 c3 -8 8 -7 19 6 8 10 3 -2
-11 -27 -19 -33 -32 -45 -48 -45 -13 0 -26 4 -30 9 -4 6 -16 6 -31 -1 -25 -11
-37 -8 -37 9 0 5 5 6 10 3 6 -4 9 -1 8 6 -2 6 3 14 10 16 8 3 10 -2 6 -14 -4
-13 -3 -14 4 -5 5 8 13 13 18 12 17 -3 14 17 -3 31 -15 11 -16 11 -5 -1 19
-22 14 -35 -7 -16 -16 15 -19 15 -24 2 -4 -9 -13 -13 -21 -10 -8 3 -17 0 -21
-5 -3 -6 -11 -9 -16 -6 -14 9 -11 21 6 23 8 1 22 3 30 4 8 1 12 5 9 10 -3 4
-14 3 -25 -2 -10 -6 -19 -8 -19 -4 0 4 -9 -1 -20 -11 -11 -10 -20 -13 -20 -7
0 6 5 14 10 17 6 4 8 9 6 13 -2 4 41 7 97 7 71 -1 102 -5 105 -14z m166 -8
c-2 -21 7 -28 31 -23 42 8 117 1 133 -14 10 -9 22 -13 25 -9 4 3 7 1 7 -5 0
-19 -18 -23 -28 -5 -5 9 -17 18 -26 19 -9 1 -14 -2 -11 -6 6 -10 -69 -5 -86 6
-8 5 -9 3 -4 -5 4 -7 -2 -22 -15 -36 l-22 -24 -25 30 c-14 16 -28 27 -33 24
-4 -3 -14 3 -21 12 -12 14 -11 15 8 9 18 -6 22 -3 20 14 -1 11 -5 20 -10 20
-5 0 -7 -6 -4 -13 3 -9 -4 -13 -21 -12 -26 0 -42 22 -24 34 6 3 32 6 60 6 45
0 49 -1 46 -22z m-94 -33 c19 -12 22 -50 4 -50 -8 0 -14 2 -14 4 0 2 -3 12 -6
20 -5 12 -2 15 12 10 15 -5 16 -4 4 4 -10 8 -18 8 -28 0 -9 -8 -10 -13 -1 -18
7 -5 8 -10 1 -14 -15 -9 -24 24 -11 40 13 16 19 17 39 4z m237 -37 c-13 -13
-20 -14 -29 -5 -9 9 -17 7 -35 -10 -13 -12 -23 -16 -23 -10 0 6 12 19 26 28
19 13 28 14 33 5 6 -9 11 -8 21 4 7 8 15 13 18 10 3 -3 -2 -13 -11 -22z"/>
<path d="M8626 8017 c2 -7 18 -13 33 -13 21 0 27 4 24 14 -4 10 -8 11 -13 2
-6 -9 -13 -9 -29 -1 -16 9 -20 9 -15 -2z"/>
<path d="M8626 7982 c-5 -9 39 -10 48 -2 3 3 -6 7 -19 8 -13 1 -26 -2 -29 -6z"/>
<path d="M8754 8018 c-3 -4 2 -8 10 -8 8 0 17 4 20 8 3 5 -2 9 -10 9 -8 0 -17
-4 -20 -9z"/>
<path d="M8820 8006 c8 -23 10 -30 10 -47 0 -6 9 -8 22 -3 21 6 22 5 8 -11
-14 -17 -14 -17 7 -5 20 13 20 15 5 26 -13 9 -19 9 -24 1 -4 -7 -8 -9 -9 -4
-5 24 -4 33 6 39 6 5 5 8 -3 8 -7 0 -11 4 -8 8 3 5 -1 9 -9 9 -9 0 -11 -6 -5
-21z"/>
<path d="M7713 8025 c0 -8 4 -15 9 -15 4 0 8 4 8 9 0 6 -4 12 -8 15 -5 3 -9
-1 -9 -9z"/>
<path d="M8180 8020 c-7 -14 -7 -20 0 -20 5 0 10 7 10 16 0 8 4 13 10 9 5 -3
7 -13 4 -23 -5 -14 -4 -15 5 -2 14 20 14 27 -4 34 -9 3 -19 -3 -25 -14z"/>
<path d="M5357 8019 c7 -7 15 -10 18 -7 3 3 -2 9 -12 12 -14 6 -15 5 -6 -5z"/>
<path d="M7566 8022 c-3 -5 1 -9 9 -9 8 0 15 4 15 9 0 4 -4 8 -9 8 -6 0 -12
-4 -15 -8z"/>
<path d="M8066 8018 c3 -4 9 -8 15 -8 5 0 9 4 9 8 0 5 -7 9 -15 9 -8 0 -12 -4
-9 -9z"/>
<path d="M5156 7998 c3 -5 10 -6 15 -3 13 9 11 12 -6 12 -8 0 -12 -4 -9 -9z"/>
<path d="M7636 7998 c3 -5 10 -6 15 -3 13 9 11 12 -6 12 -8 0 -12 -4 -9 -9z"/>
<path d="M7870 7985 c0 -8 2 -15 4 -15 2 0 6 7 10 15 3 8 1 15 -4 15 -6 0 -10
-7 -10 -15z"/>
<path d="M8257 7985 c-4 -8 -3 -16 1 -19 4 -3 9 4 9 15 2 23 -3 25 -10 4z"/>
<path d="M5259 7973 c-13 -16 -12 -17 3 -5 9 8 23 10 29 6 8 -4 9 -3 5 4 -10
17 -21 15 -37 -5z"/>
<path d="M5327 7979 c7 -7 15 -10 18 -7 3 3 -2 9 -12 12 -14 6 -15 5 -6 -5z"/>
<path d="M7950 7985 c0 -5 5 -17 10 -25 5 -8 10 -10 10 -5 0 6 -5 17 -10 25
-5 8 -10 11 -10 5z"/>
<path d="M8019 7973 c-13 -17 -13 -17 6 -3 11 8 22 16 24 17 2 2 0 3 -6 3 -6
0 -17 -8 -24 -17z"/>
<path d="M5198 7975 c-3 -6 4 -19 15 -30 11 -11 16 -13 12 -5 -8 13 -7 13 8 1
11 -9 17 -10 17 -2 0 6 -5 11 -11 11 -5 0 -8 4 -4 9 3 5 0 13 -6 17 -8 4 -9 3
-5 -4 4 -7 3 -12 -3 -12 -5 0 -11 5 -13 12 -3 7 -7 8 -10 3z"/>
<path d="M8076 7972 c-2 -4 4 -8 14 -8 10 0 16 4 14 8 -3 4 -9 8 -14 8 -5 0
-11 -4 -14 -8z"/>
<path d="M8306 7964 c-5 -14 -4 -15 9 -4 17 14 19 20 6 20 -5 0 -12 -7 -15
-16z"/>
<path d="M8146 7958 c3 -5 10 -6 15 -3 13 9 11 12 -6 12 -8 0 -12 -4 -9 -9z"/>
<path d="M5287 7944 c2 -7 -1 -15 -8 -20 -7 -4 -10 -3 -5 4 3 6 2 13 -3 16 -5
3 -11 -4 -15 -17 -3 -13 -9 -18 -13 -12 -5 6 -19 11 -33 13 -21 2 -22 1 -8 -8
11 -7 15 -17 11 -28 -7 -16 -5 -16 20 1 25 16 31 15 28 -5 -2 -12 17 -10 24 2
3 6 1 10 -5 10 -6 0 -8 5 -5 10 5 8 11 8 20 0 8 -7 15 -7 19 -1 4 5 2 12 -4
16 -13 8 -13 25 1 25 5 0 7 -5 4 -10 -3 -6 1 -13 11 -17 14 -5 14 -8 -7 -23
-21 -17 -22 -19 -6 -35 16 -15 17 -15 17 8 0 13 9 32 20 42 21 19 17 40 -6 31
-7 -3 -16 -1 -19 4 -8 13 -44 8 -38 -6z"/>
<path d="M8510 7946 c0 -8 4 -17 9 -20 5 -4 7 3 4 14 -6 23 -13 26 -13 6z"/>
<path d="M8195 7940 c3 -5 8 -10 11 -10 2 0 4 5 4 10 0 6 -5 10 -11 10 -5 0
-7 -4 -4 -10z"/>
<path d="M8226 7938 c3 -5 10 -6 15 -3 13 9 11 12 -6 12 -8 0 -12 -4 -9 -9z"/>
<path d="M8450 7939 c0 -5 5 -7 10 -4 6 3 10 8 10 11 0 2 -4 4 -10 4 -5 0 -10
-5 -10 -11z"/>
<path d="M8310 7936 c0 -2 8 -10 18 -17 15 -13 16 -12 3 4 -13 16 -21 21 -21
13z"/>
<path d="M8255 7920 c-3 -5 -2 -10 4 -10 5 0 13 5 16 10 3 6 2 10 -4 10 -5 0
-13 -4 -16 -10z"/>
<path d="M5179 7906 c6 -7 8 -16 4 -20 -4 -4 -8 -15 -8 -24 0 -9 -16 -24 -35
-34 -34 -16 -34 -17 -9 -18 15 0 32 7 39 15 7 8 16 13 20 10 10 -6 51 25 45
35 -3 5 -14 7 -25 5 -17 -3 -18 -1 -10 14 8 15 5 20 -11 24 -15 4 -18 2 -10
-7z"/>
<path d="M8663 7905 c-3 -9 -3 -18 -1 -21 3 -3 8 4 11 16 6 23 -1 27 -10 5z"/>
<path d="M8516 7898 c3 -5 10 -6 15 -3 13 9 11 12 -6 12 -8 0 -12 -4 -9 -9z"/>
<path d="M9020 7900 c-18 -12 -2 -12 25 0 13 6 15 9 5 9 -8 0 -22 -4 -30 -9z"/>
<path d="M8755 7891 c-3 -5 -2 -12 3 -15 5 -3 9 1 9 9 0 17 -3 19 -12 6z"/>
<path d="M8787 7879 c7 -7 15 -10 18 -7 3 3 -2 9 -12 12 -14 6 -15 5 -6 -5z"/>
<path d="M8820 7876 c0 -2 7 -7 16 -10 8 -3 12 -2 9 4 -6 10 -25 14 -25 6z"/>
<path d="M5140 7861 c0 -6 -6 -11 -13 -11 -8 0 -24 -11 -37 -25 -13 -14 -18
-25 -12 -25 7 0 12 5 12 10 0 9 42 32 63 34 11 1 10 20 -2 24 -6 2 -11 -1 -11
-7z"/>
<path d="M8973 7855 c0 -6 8 -11 18 -11 9 0 15 5 12 11 -2 7 -10 12 -17 12 -7
0 -13 -5 -13 -12z"/>
<path d="M5039 7783 c-13 -16 -12 -17 4 -4 16 13 21 21 13 21 -2 0 -10 -8 -17
-17z"/>
<path d="M5085 7790 c-15 -6 -6 -9 33 -9 28 -1 52 4 52 9 0 12 -57 12 -85 0z"/>
<path d="M8388 7718 c15 -17 20 -28 13 -33 -6 -3 -11 -1 -11 5 0 6 -4 8 -10 5
-5 -3 -10 1 -10 10 0 9 -5 13 -10 10 -6 -4 -17 -1 -25 5 -10 8 -15 9 -15 2 0
-11 64 -46 85 -47 6 -1 9 -7 7 -14 -1 -7 2 -10 7 -7 5 4 12 2 16 -4 4 -6 11
-8 16 -5 12 8 51 -20 41 -29 -4 -4 -2 -6 3 -4 6 1 21 -5 35 -15 13 -9 21 -17
16 -17 -5 0 -3 -7 4 -15 7 -8 19 -15 27 -15 18 0 79 -50 76 -61 -2 -5 8 -11
22 -15 14 -3 23 -10 20 -14 -11 -17 16 -21 37 -5 14 10 17 16 8 14 -29 -3 -41
1 -34 13 4 6 3 8 -4 4 -6 -3 -17 2 -24 12 -7 11 -17 20 -23 22 -5 1 -9 6 -7
11 1 5 -4 9 -12 9 -8 0 -45 25 -83 54 -163 131 -187 148 -165 124z m47 -48
c10 -11 16 -20 13 -20 -3 0 -13 9 -23 20 -10 11 -16 20 -13 20 3 0 13 -9 23
-20z"/>
<path d="M3746 7624 c-9 -24 -7 -27 9 -10 17 17 19 26 6 26 -5 0 -12 -7 -15
-16z"/>
<path d="M3697 7561 c-27 -31 -108 -203 -103 -217 3 -8 -1 -14 -9 -14 -16 0
-53 -49 -58 -76 -2 -11 -9 -32 -15 -47 -7 -16 -11 -40 -11 -55 1 -23 3 -22 9
8 5 25 7 10 8 -51 0 -90 24 -208 50 -246 18 -28 18 -28 -83 2 -67 21 -88 23
-111 15 -23 -9 -25 -13 -14 -20 17 -11 1 -13 -57 -10 -18 1 -33 -3 -33 -9 0
-10 70 -16 129 -11 18 1 22 -2 18 -14 -4 -9 -3 -15 1 -14 13 3 132 -35 138
-43 3 -5 10 -9 15 -9 6 0 7 5 4 10 -3 6 -2 10 4 10 5 0 18 3 28 6 16 6 16 5 3
-7 -8 -8 -13 -13 -11 -12 2 2 11 -3 19 -10 13 -10 14 -9 8 2 -6 8 0 7 18 -4
24 -16 39 -34 16 -20 -5 3 -10 2 -10 -4 0 -6 12 -17 28 -26 15 -8 44 -30 66
-48 l39 -34 -39 -7 c-22 -4 -71 -21 -110 -37 -41 -17 -79 -27 -90 -23 -14 4
-15 3 -6 -4 10 -7 5 -11 -18 -16 -43 -8 -60 -7 -35 4 15 7 16 9 4 9 -9 1 -22
-6 -29 -14 -13 -15 -51 -20 -64 -8 -10 11 -37 12 -30 2 3 -5 10 -7 15 -4 5 4
9 2 9 -2 0 -5 -22 -15 -49 -23 -67 -20 -48 -39 27 -27 40 7 52 12 48 23 -4 10
3 14 24 14 37 0 39 -17 4 -30 -37 -15 -204 -38 -204 -29 0 11 28 19 48 13 16
-5 16 -5 0 6 -14 9 -27 6 -60 -13 -24 -14 -79 -33 -122 -42 -93 -20 -146 -41
-221 -90 -113 -72 -345 -293 -397 -378 -13 -21 -36 -58 -51 -82 -31 -48 -50
-140 -41 -195 4 -30 21 -71 87 -209 11 -22 40 -44 122 -92 17 -10 16 -8 -3 14
-13 14 -27 41 -32 61 l-8 36 35 -21 c19 -12 37 -19 39 -16 3 3 -12 15 -35 27
-23 11 -42 24 -42 28 -8 49 -7 78 6 140 17 84 27 106 64 138 17 15 30 19 38
13 7 -7 14 -6 19 2 4 7 3 9 -4 5 -6 -3 -13 -2 -16 3 -3 4 15 27 39 49 25 22
45 45 45 51 0 6 8 15 18 20 9 5 20 11 23 13 10 5 49 -33 44 -43 -3 -4 1 -14 9
-22 8 -8 12 -18 8 -22 -4 -5 -1 -5 6 -1 11 7 10 11 -2 25 -9 10 -14 20 -11 23
3 3 -1 11 -10 18 -8 7 -15 16 -15 21 0 11 23 7 32 -6 4 -5 6 4 4 20 -2 17 -8
30 -14 30 -6 0 -14 4 -19 9 -5 5 -3 6 5 2 6 -4 12 -2 12 4 0 6 5 8 10 5 6 -3
10 0 10 8 0 8 7 18 16 21 8 3 12 11 8 17 -4 7 -3 9 3 6 6 -4 13 3 16 14 3 11
15 23 26 26 11 3 18 9 15 14 -3 5 2 6 10 3 23 -9 20 -21 -6 -28 -19 -5 -20 -8
-8 -15 12 -9 12 -11 -3 -17 -9 -3 -14 -11 -11 -16 4 -6 10 -5 15 3 7 12 9 12
9 0 0 -8 6 -11 16 -7 9 3 12 2 9 -5 -4 -6 -13 -8 -21 -5 -8 3 -14 1 -14 -4 0
-6 7 -10 15 -10 8 0 15 -5 15 -12 0 -6 -3 -8 -6 -5 -4 3 -17 -2 -30 -12 -14
-11 -33 -17 -44 -14 -12 3 -20 0 -20 -6 0 -7 4 -10 9 -6 5 3 12 1 16 -5 3 -5
-1 -10 -9 -10 -19 0 -21 -16 -3 -26 6 -4 9 -4 5 0 -4 5 5 19 19 32 27 25 50
32 36 12 -4 -7 -8 -17 -8 -23 0 -5 -5 -10 -12 -10 -6 0 -15 -4 -20 -10 -4 -6
-4 -7 1 -3 5 4 16 3 25 -2 14 -7 17 -4 17 18 -1 19 4 26 14 24 12 -3 13 -1 3
9 -7 7 -13 18 -13 23 0 6 11 -2 25 -17 28 -29 36 -33 33 -16 -2 6 3 14 11 17
9 3 11 0 6 -9 -5 -8 -5 -11 0 -7 4 4 14 3 22 -4 11 -8 12 -7 7 5 -8 21 -34 30
-50 16 -17 -14 -19 2 -2 19 7 7 17 8 30 1 10 -6 18 -6 18 0 0 12 -29 23 -41
15 -5 -3 -9 -1 -9 5 0 17 20 23 35 11 11 -9 15 -9 15 -1 0 6 -5 11 -11 11 -5
0 -7 5 -4 10 14 23 32 9 32 -27 1 -65 1 -66 18 -49 9 8 23 13 33 10 12 -4 13
-3 4 3 -9 7 -6 13 13 23 14 7 28 10 32 6 11 -10 14 -48 4 -41 -5 3 -12 1 -15
-4 -4 -5 2 -8 11 -7 19 3 25 33 11 52 -5 7 3 11 22 11 21 0 27 -4 20 -11 -5
-5 -10 -15 -10 -21 0 -5 5 -2 11 8 5 9 17 17 25 17 8 0 13 -4 10 -9 -3 -4 6
-13 19 -19 20 -9 23 -9 18 3 -3 8 -9 13 -13 10 -8 -5 -23 25 -16 32 2 3 13 -4
24 -15 20 -20 20 -20 25 0 5 17 9 18 27 8 12 -6 24 -9 28 -6 3 3 0 6 -6 6 -7
0 -6 7 4 19 9 10 24 16 34 14 10 -3 20 2 23 11 8 19 31 21 46 3 8 -10 7 -17
-2 -27 -6 -7 0 -5 15 4 28 18 48 51 26 43 -7 -2 -12 -10 -11 -16 3 -13 -13
-15 -21 -2 -3 4 3 16 14 26 16 14 23 15 34 6 12 -10 13 -9 9 9 -6 23 -23 37
-23 19 0 -8 -5 -7 -17 2 -14 12 -16 12 -8 0 5 -9 4 -12 -3 -7 -6 3 -13 2 -17
-4 -4 -6 -11 -7 -17 -4 -7 4 -8 2 -4 -5 5 -7 16 -9 29 -5 19 6 20 5 8 -10 -10
-12 -17 -14 -27 -5 -8 6 -14 8 -14 4 0 -4 -7 -2 -15 5 -10 9 -15 9 -15 1 0 -6
-5 -11 -11 -11 -8 0 -7 5 1 15 7 9 10 18 6 22 -3 3 -6 1 -6 -6 0 -7 -4 -10 -9
-6 -5 3 -12 1 -16 -5 -4 -6 -11 -7 -17 -4 -7 5 -8 2 -3 -6 5 -9 4 -11 -4 -6
-6 4 -9 11 -6 16 3 5 1 11 -5 15 -5 3 -11 1 -11 -4 -1 -6 -3 -15 -4 -21 -1 -5
-3 -15 -4 -21 0 -5 -6 -7 -13 -3 -7 4 -8 3 -4 -5 4 -6 2 -18 -4 -26 -15 -19
-37 -20 -23 -2 12 16 15 67 4 67 -5 0 -8 -11 -7 -25 3 -26 -18 -65 -36 -65 -6
0 -3 9 7 20 10 11 15 23 12 27 -4 3 -2 12 5 20 6 8 7 13 2 12 -5 -1 -11 0 -14
1 -21 8 -39 6 -43 -4 -4 -9 3 -11 20 -8 18 3 24 1 19 -7 -4 -6 -12 -8 -18 -5
-7 4 -8 2 -4 -4 9 -14 -3 -15 -24 -2 -12 8 -13 13 -2 30 15 24 7 26 -15 4 -11
-11 -19 -12 -26 -5 -29 29 -33 -12 -5 -51 11 -16 15 -28 10 -28 -6 0 -19 15
-30 32 -16 24 -18 35 -9 41 9 6 8 7 -3 5 -9 -3 -14 -17 -14 -41 0 -39 -3 -42
-24 -28 -10 6 -10 10 3 21 17 14 21 35 3 24 -22 -14 -98 -13 -98 2 0 7 5 16
10 19 13 8 13 35 1 35 -5 0 -11 -8 -14 -17 -2 -10 -4 -1 -3 20 0 27 2 33 9 22
7 -13 12 -14 25 -3 9 7 14 8 9 3 -4 -4 1 -18 10 -29 17 -20 17 -20 1 -7 -11 8
-18 9 -18 3 0 -6 9 -16 20 -22 14 -8 20 -8 20 0 0 7 6 10 13 7 6 -2 11 -10 9
-16 -1 -7 2 -10 8 -6 6 4 8 15 5 26 -4 11 -2 19 5 19 6 0 8 -4 5 -10 -3 -5 2
-10 11 -10 10 0 14 3 11 7 -4 3 0 14 9 24 10 11 12 19 5 24 -6 3 -11 1 -11 -6
0 -7 -3 -9 -6 -6 -4 3 -15 2 -24 -3 -14 -8 -21 -4 -35 18 l-16 27 20 -24 c19
-21 25 -20 23 0 -1 4 8 5 18 2 13 -3 20 0 20 8 1 10 4 9 11 -3 6 -11 16 -15
27 -11 10 4 5 -4 -11 -19 -21 -20 -24 -27 -13 -31 9 -4 17 2 21 13 6 18 8 18
30 4 27 -18 44 -2 24 22 -9 11 -9 18 -1 26 7 7 12 8 12 3 0 -5 7 0 16 11 14
18 15 18 4 -4 -6 -12 -16 -20 -22 -16 -6 4 -9 1 -6 -7 3 -8 13 -16 23 -17 10
-3 15 0 11 7 -4 6 -2 11 3 11 6 0 11 -4 11 -10 0 -12 22 -9 32 4 4 6 2 19 -3
30 -9 19 -9 20 4 4 8 -10 17 -15 20 -11 17 16 5 -10 -13 -29 -11 -12 -17 -24
-14 -27 3 -3 12 3 20 13 8 11 14 15 14 10 0 -5 10 -10 23 -11 21 -2 21 -1 3
13 -18 13 -18 14 -2 14 9 0 15 4 11 9 -3 5 -1 12 5 16 6 4 7 12 4 18 -4 7 -4
9 1 5 4 -4 14 -3 22 3 22 19 14 -2 -9 -22 -11 -11 -19 -19 -17 -20 2 0 12 -2
22 -4 13 -2 17 1 13 12 -5 12 -4 13 7 5 8 -7 18 -8 22 -4 5 4 5 -1 2 -11 -4
-10 -3 -16 2 -12 5 3 12 -1 14 -7 4 -10 6 -10 6 0 1 6 8 12 16 12 8 0 15 5 15
10 0 6 6 10 13 10 6 -1 1 -10 -12 -20 l-23 -20 26 0 c15 0 25 4 22 8 -2 4 4 9
15 9 10 1 19 -4 19 -12 0 -8 4 -17 10 -20 6 -3 9 3 7 14 -1 11 3 21 8 21 6 1
24 11 40 22 l30 20 -27 -24 c-27 -23 -27 -25 -10 -42 13 -14 14 -17 2 -14 -9
2 -14 -3 -12 -12 3 -12 1 -12 -9 -3 -6 6 -18 9 -25 6 -8 -3 -14 0 -14 6 0 6
-5 11 -10 11 -6 0 -5 -8 2 -19 7 -11 17 -17 23 -14 31 18 -59 -65 -106 -97
-82 -56 -140 -126 -164 -196 -11 -32 -19 -69 -18 -81 3 -33 -88 -64 -181 -62
-141 2 -296 -40 -304 -84 -4 -18 -2 -18 22 -2 31 21 167 55 215 55 l36 -1 -35
-18 c-19 -11 -38 -17 -41 -15 -10 6 -103 -33 -107 -45 -2 -6 17 -2 43 9 63 27
65 25 16 -10 -23 -17 -47 -43 -53 -58 -6 -15 -32 -48 -57 -74 -25 -26 -42 -51
-38 -54 4 -4 18 4 31 19 39 42 128 81 211 93 11 2 53 12 94 23 55 16 78 18 93
10 15 -8 30 -7 59 5 74 30 101 15 57 -31 -22 -23 -18 -47 4 -25 7 7 19 12 27
12 13 0 63 -48 118 -113 13 -15 33 -27 46 -27 13 0 32 -10 43 -21 30 -34 95
-72 105 -62 6 6 -10 23 -40 43 -86 59 -182 203 -154 231 5 5 36 12 70 15 79 8
128 -14 233 -106 155 -138 195 -249 141 -395 l-11 -30 -121 4 c-156 4 -270
-17 -403 -75 -116 -51 -166 -83 -166 -106 0 -27 27 -35 151 -43 63 -4 140 -10
169 -13 l54 -7 -76 -38 c-47 -23 -90 -37 -114 -37 -52 -1 -205 -35 -244 -55
-17 -9 -36 -13 -42 -9 -6 4 -8 3 -5 -3 6 -10 -83 -53 -107 -53 -6 1 -31 31
-56 68 -29 43 -64 80 -100 105 -72 49 -298 159 -319 155 -18 -4 -18 -4 -86 54
-28 24 -74 59 -103 78 -28 19 -54 43 -58 53 -12 38 -4 144 16 201 26 76 25 80
-5 31 -22 -37 -28 -59 -39 -159 -5 -44 -18 -55 -61 -56 -27 -1 -28 -2 -13 -14
16 -12 15 -16 -6 -59 l-24 -46 -24 37 c-64 97 -77 222 -35 323 24 59 58 121
83 157 34 46 -3 18 -51 -40 -27 -33 -60 -70 -71 -81 -29 -30 -72 -117 -76
-155 -2 -18 -8 -31 -13 -30 -6 2 -9 9 -9 15 1 7 -2 11 -6 8 -9 -6 -65 108 -62
126 0 3 -9 11 -21 19 -21 12 -21 12 -7 -6 14 -18 14 -18 -2 -5 -21 15 -25 46
-5 35 6 -4 9 -4 5 1 -4 4 -3 17 3 29 10 20 10 20 -5 2 -13 -17 -16 -17 -16 -4
0 9 -6 19 -12 21 -7 3 -3 6 8 6 19 1 21 6 18 44 -14 163 -10 295 11 382 5 21
4 27 -3 20 -15 -14 -32 -127 -32 -217 0 -70 -2 -78 -22 -89 -13 -7 -24 -12
-25 -11 -13 9 -21 -1 -11 -12 11 -13 15 -13 26 2 6 8 12 11 12 5 0 -7 -5 -15
-10 -18 -6 -4 -8 -10 -5 -15 3 -5 0 -12 -6 -16 -8 -5 -9 -3 -4 6 5 9 4 11 -3
6 -9 -5 -9 -13 -2 -27 6 -11 16 -17 21 -13 6 4 6 -4 -1 -17 -10 -17 -10 -24
-1 -27 6 -2 9 -8 5 -13 -3 -5 -1 -9 4 -9 14 0 23 -28 12 -35 -15 -9 -53 76
-54 121 0 23 -4 40 -8 38 -3 -2 -8 2 -11 8 -2 7 -2 -12 1 -42 2 -30 19 -91 37
-136 l33 -81 -19 -58 c-44 -133 -18 -213 116 -354 94 -98 133 -126 171 -118
17 3 28 -3 40 -22 34 -51 152 -160 235 -216 46 -31 106 -72 133 -91 26 -19 59
-34 72 -34 13 0 59 -12 101 -26 50 -17 109 -28 163 -31 49 -3 119 -15 165 -30
86 -26 110 -26 230 2 39 10 103 18 143 20 40 2 78 7 85 13 6 6 38 17 70 25 33
9 66 22 75 30 34 29 80 46 161 57 102 14 126 23 142 51 6 13 32 44 57 71 l45
48 120 0 c117 0 121 -1 181 -33 34 -19 89 -44 124 -57 48 -17 62 -26 57 -39
-4 -9 3 -22 16 -32 l22 -16 -31 -54 c-17 -30 -37 -80 -45 -112 -9 -33 -17 -60
-19 -62 -2 -2 -47 12 -101 30 -59 20 -99 29 -103 23 -9 -14 4 -23 65 -44 30
-10 72 -35 95 -55 l41 -36 -53 -58 c-53 -58 -53 -58 -47 -109 4 -28 9 -53 12
-56 2 -3 39 -8 81 -12 149 -13 192 -20 192 -33 0 -10 8 -11 35 -2 47 14 55 3
45 -58 -4 -27 -6 -72 -3 -100 4 -36 -1 -64 -16 -103 -34 -86 -67 -237 -49
-226 4 3 8 17 8 32 0 15 5 34 10 42 7 11 10 7 10 -18 0 -56 -22 -78 -82 -81
-28 -1 -55 -4 -58 -6 -4 -2 -3 -37 2 -77 10 -84 5 -92 -65 -103 -51 -9 -77
-22 -77 -38 0 -7 -20 -23 -45 -35 -25 -12 -45 -28 -45 -35 0 -14 24 -51 52
-79 10 -10 18 -32 18 -50 0 -45 67 -105 127 -114 37 -5 48 -3 68 16 33 31 59
21 50 -20 -4 -17 -8 -49 -10 -73 -2 -23 -5 -41 -6 -40 -2 1 -13 5 -24 9 -11 4
-32 16 -48 26 -15 11 -33 18 -40 15 -11 -4 8 -18 82 -59 24 -13 31 -25 36 -63
7 -46 6 -67 -16 -195 -16 -93 -18 -140 -8 -140 5 0 8 -3 7 -7 -7 -33 58 -112
92 -113 9 0 33 -9 55 -20 21 -11 41 -18 43 -15 3 3 -1 5 -9 6 -8 0 -3 5 10 10
13 5 26 7 29 4 3 -3 0 -5 -6 -5 -7 0 -12 -6 -12 -14 0 -8 19 -18 45 -25 42
-11 47 -10 85 18 21 15 36 31 33 35 -3 3 1 6 9 6 21 0 71 77 70 109 -1 65 177
306 245 332 34 13 37 7 52 -94 13 -96 25 -112 74 -103 46 9 53 19 74 104 10
41 23 72 31 72 6 0 12 5 12 11 0 5 5 7 10 4 15 -9 12 2 -6 19 -8 9 -10 16 -4
16 8 0 8 6 0 20 -6 11 -8 25 -5 30 3 5 0 12 -6 16 -8 5 -9 3 -4 -6 5 -9 4 -11
-3 -6 -9 5 -8 13 3 29 15 24 5 55 -14 43 -6 -4 -11 -4 -9 1 4 17 -31 81 -56
101 -22 17 -33 19 -52 11 -36 -13 -51 -12 -36 3 18 18 15 52 -8 81 -27 34 -81
157 -75 167 9 15 -6 58 -21 64 -8 3 -13 2 -10 -2 3 -5 -1 -9 -8 -9 -8 0 -12 6
-9 12 2 7 -3 20 -12 29 -14 13 -16 30 -11 91 3 41 11 85 18 97 11 21 13 20 19
-28 3 -28 11 -59 17 -70 5 -10 10 -36 10 -57 0 -39 6 -52 24 -52 5 0 20 -25
32 -55 58 -139 157 -270 206 -270 32 0 63 30 54 54 -6 15 5 21 29 17 11 -2 8
14 -8 45 -18 34 -12 89 16 173 25 70 24 93 -5 178 -30 89 -44 115 -59 110 -7
-2 -23 4 -36 14 -25 20 -67 24 -90 10 -12 -8 -19 5 -35 62 -23 82 -25 153 -7
218 9 34 10 51 1 74 -7 17 -13 57 -15 90 -2 42 -1 50 4 25 6 -33 7 -34 13 -10
4 14 10 69 14 121 l7 96 -35 21 c-20 12 -46 22 -59 22 -24 0 -83 -33 -75 -41
2 -2 -11 -5 -30 -6 -38 -2 -42 3 -16 23 15 13 14 13 -10 5 -20 -7 -29 -6 -38
4 -6 8 -17 12 -25 9 -9 -4 -12 5 -12 31 l1 37 57 -6 c65 -6 80 3 76 50 -2 24
2 29 23 32 18 2 21 0 11 -6 -7 -5 -9 -12 -5 -15 5 -3 15 1 21 9 10 10 10 15
-5 23 -13 8 -14 13 -4 19 7 5 10 16 6 27 -4 10 -3 16 2 13 5 -4 10 5 11 19 0
14 7 30 13 37 10 8 12 7 7 -5 -5 -14 0 -15 30 -9 19 5 45 17 56 29 12 11 26
21 32 23 5 2 9 8 7 14 -1 7 14 21 33 33 37 22 74 86 75 129 0 13 -7 37 -16 54
-13 25 -14 48 -9 126 5 54 4 92 -1 89 -11 -6 -11 83 -1 100 10 16 83 48 129
57 63 12 54 26 -16 26 -52 0 -67 -4 -78 -19 -25 -35 -49 -30 -65 14 -8 22 -16
54 -18 70 -2 17 -15 58 -29 91 -14 34 -27 72 -30 85 -2 13 -9 44 -15 69 -8 37
-6 55 9 100 37 105 22 323 -29 444 -12 26 -19 52 -16 56 3 5 2 10 -3 12 -4 1
-31 50 -60 106 -100 196 -209 310 -380 396 -81 41 -225 86 -276 86 -42 0 -46
2 -46 25 0 17 -4 23 -15 19 -11 -5 -13 -18 -10 -57 3 -31 -1 -57 -8 -66 -10
-12 -9 -13 2 -6 11 6 13 4 8 -8 -3 -9 -2 -17 3 -19 5 -2 16 -20 25 -40 14 -34
14 -38 0 -38 -15 0 -18 7 -18 41 0 9 -7 16 -16 16 -28 1 -61 15 -55 24 3 5 -1
9 -9 9 -21 0 -16 -26 5 -27 10 -1 25 -9 34 -17 9 -9 19 -14 23 -12 4 3 7 -4 8
-14 2 -17 0 -17 -23 3 -14 12 -31 22 -37 22 -7 1 -39 13 -72 28 -65 30 -322
87 -395 87 -25 0 -54 6 -65 14 -11 7 -31 16 -45 19 -14 4 -42 22 -62 41 -20
19 -39 32 -42 29 -3 -3 -32 20 -64 51 -32 31 -61 54 -64 51 -3 -3 -4 8 -2 24
3 25 0 29 -14 25 -13 -5 -14 -4 -3 4 10 7 10 14 2 30 -13 25 -14 32 -1 32 12
0 68 -82 64 -95 -2 -5 13 -28 33 -50 20 -22 30 -31 22 -20 -7 11 -22 30 -32
42 -11 12 -16 27 -12 33 4 7 -14 43 -41 83 l-49 71 2 108 c1 84 6 123 23 171
27 75 29 79 102 141 84 70 138 74 330 25 66 -17 122 -29 124 -26 9 8 -98 56
-160 71 -61 16 -255 24 -275 11 -9 -5 -8 -10 5 -19 13 -10 14 -15 4 -21 -9 -5
-11 -4 -6 3 5 8 -1 12 -16 12 -34 0 -68 -11 -63 -20 3 -5 -5 -6 -17 -3 -19 4
-20 3 -8 -6 9 -7 10 -11 3 -11 -6 0 -14 4 -18 9 -7 12 23 79 48 107 18 21 18
22 -2 27 -12 3 -26 -2 -34 -12z m-107 -761 c0 -5 -5 -10 -11 -10 -5 0 -7 5 -4
10 3 6 8 10 11 10 2 0 4 -4 4 -10z m204 -149 c17 -19 17 -19 -1 -15 -11 3 -20
12 -20 20 0 18 0 18 21 -5z m1020 -72 c121 -48 209 -100 274 -162 48 -45 133
-170 176 -255 31 -62 28 -83 -5 -28 -11 20 -27 36 -35 36 -8 0 2 -20 26 -52
22 -29 45 -53 52 -53 18 0 57 -107 78 -215 22 -109 21 -254 -2 -310 l-15 -35
-2 54 c-1 30 -8 62 -15 70 -16 19 -25 54 -35 136 -5 33 -9 50 -9 38 -1 -13 -6
-23 -10 -23 -8 0 -28 49 -112 262 -8 22 -56 82 -108 137 -52 54 -97 102 -100
107 -8 12 -90 51 -126 60 -18 4 -26 2 -26 -7 -1 -10 -4 -9 -10 3 -6 9 -28 19
-50 23 -22 4 -40 10 -40 13 0 4 -15 23 -33 42 -17 20 -33 42 -35 49 -2 8 -17
33 -33 56 -17 23 -33 57 -35 75 l-6 33 64 -5 c42 -4 100 -20 172 -49z m-199
-89 c-3 -5 -1 -10 6 -10 7 0 10 -3 6 -6 -9 -9 -28 6 -22 17 4 5 8 9 11 9 3 0
2 -4 -1 -10z m-1228 -6 c-3 -3 -12 -4 -19 -1 -8 3 -5 6 6 6 11 1 17 -2 13 -5z
m-40 -10 c-3 -3 -12 -4 -19 -1 -8 3 -5 6 6 6 11 1 17 -2 13 -5z m1299 -12 c-3
-5 10 -24 29 -42 19 -19 35 -39 35 -44 0 -7 -3 -8 -8 -1 -4 6 -16 15 -27 21
-11 6 -20 17 -20 25 0 8 -9 13 -23 13 -27 -2 -28 4 -4 22 20 16 25 17 18 6z
m-1286 -30 c0 -9 -72 -52 -86 -52 -5 1 7 9 26 20 l35 19 -50 -5 c-64 -7 -115
-23 -115 -35 0 -6 7 -6 18 0 11 6 21 5 29 -4 9 -9 3 -16 -23 -29 -67 -31 -82
-17 -36 35 24 27 38 32 112 44 47 7 86 13 88 14 1 1 2 -3 2 -7z m-210 -37 c-7
-8 -17 -12 -23 -8 -5 3 -7 1 -3 -5 3 -6 1 -14 -5 -17 -5 -4 -8 -13 -5 -20 3
-9 -7 -18 -27 -24 -38 -13 -48 -14 -44 -3 1 4 5 6 10 5 4 -2 7 2 7 7 0 6 -6
10 -12 10 -9 0 -8 4 2 10 12 8 11 10 -7 10 -16 0 -21 -4 -17 -15 4 -8 1 -15
-5 -15 -6 0 -11 6 -11 13 -1 6 -6 2 -13 -10 -7 -12 -15 -22 -19 -22 -5 -1 -7
-4 -5 -8 1 -5 6 -7 10 -5 5 1 6 -2 2 -8 -8 -13 1 -13 26 0 10 6 19 8 19 6 0
-3 -18 -15 -41 -26 -34 -18 -43 -19 -57 -8 -13 11 -15 11 -10 -3 4 -11 -3 -19
-25 -27 l-32 -12 28 26 c15 14 24 30 21 36 -4 6 -3 8 3 5 12 -8 46 26 37 36
-4 3 -18 -3 -32 -13 -13 -11 -31 -20 -38 -20 -8 0 -11 -8 -9 -20 2 -12 0 -18
-6 -15 -5 4 -7 12 -3 18 3 7 0 5 -8 -4 -7 -8 -21 -18 -31 -22 -10 -4 -16 -11
-13 -16 3 -5 -2 -8 -12 -7 -12 1 -17 -6 -16 -27 1 -24 -6 -32 -46 -52 -26 -13
-50 -21 -54 -18 -3 4 -6 1 -6 -5 0 -6 -10 -17 -22 -23 -23 -12 -23 -12 1 14
13 14 27 25 30 24 13 -4 80 37 86 52 9 24 0 22 -38 -10 -20 -17 -37 -28 -37
-25 0 2 39 37 88 76 119 98 210 142 371 179 2 1 -2 -6 -9 -14z m905 -94 c3 -6
-3 -9 -14 -8 -11 0 -17 5 -15 9 7 11 22 10 29 -1z m-84 -38 c13 -16 12 -17 -3
-4 -10 7 -18 15 -18 17 0 8 8 3 21 -13z m-874 -9 c-3 -3 -12 -4 -19 -1 -8 3
-5 6 6 6 11 1 17 -2 13 -5z m823 -11 c0 -1 -10 -7 -21 -14 -13 -6 -19 -7 -15
-1 3 6 0 12 -6 15 -7 2 -1 4 14 3 16 0 28 -2 28 -3z m29 -10 c-18 -23 -43 -42
-48 -38 -4 4 49 55 57 55 2 0 -2 -8 -9 -17z m-702 -8 c0 -8 -4 -12 -9 -9 -5 3
-6 10 -3 15 9 13 12 11 12 -6z m-46 -18 c-10 -9 -11 -8 -5 6 3 10 9 15 12 12
3 -3 0 -11 -7 -18z m419 -7 c0 -6 -7 -10 -15 -10 -8 0 -15 -4 -15 -10 0 -5 -4
-10 -10 -10 -18 0 -10 19 11 25 20 7 20 7 2 21 -17 14 -16 14 5 4 12 -6 22
-15 22 -20z m30 10 c6 -11 8 -20 6 -20 -3 0 -10 9 -16 20 -6 11 -8 20 -6 20 3
0 10 -9 16 -20z m119 -2 c-5 -10 -15 -18 -22 -18 -8 0 -8 3 2 9 7 5 11 13 8
18 -3 5 0 10 8 10 10 0 11 -5 4 -19z m106 -7 c-6 -5 -25 10 -25 20 0 5 6 4 14
-3 8 -7 12 -15 11 -17z m-305 9 c0 -5 -5 -10 -11 -10 -5 0 -7 5 -4 10 3 6 8
10 11 10 2 0 4 -4 4 -10z m-464 -15 c-1 -8 -5 -17 -8 -21 -5 -4 -4 16 1 34 3
9 9 -1 7 -13z m61 8 c-4 -3 -1 -13 6 -21 8 -11 8 -14 0 -9 -6 4 -14 1 -17 -5
-2 -7 -3 -2 -1 12 4 32 4 30 12 30 3 0 3 -3 0 -7z m310 -8 c5 -4 2 -5 -4 -1
-9 5 -13 0 -14 -16 l-2 -23 -4 23 c-4 19 -7 21 -19 11 -12 -10 -13 -9 -8 4 6
17 37 18 51 2z m67 -1 c3 -8 2 -12 -4 -9 -6 3 -10 10 -10 16 0 14 7 11 14 -7z
m181 8 c-3 -3 2 -16 10 -29 9 -13 13 -23 11 -23 -2 0 -13 -3 -23 -6 -15 -5
-15 -4 -3 5 10 7 11 11 3 11 -7 0 -10 7 -7 15 4 8 1 15 -5 15 -6 0 -11 4 -11
8 0 5 7 9 15 9 8 0 13 -3 10 -5z m91 -1 c-4 -5 -1 -11 5 -13 6 -2 0 -9 -14
-15 -23 -11 -25 -10 -20 5 4 9 11 20 17 24 15 10 18 10 12 -1z m-606 -18 c0
-5 -5 -15 -10 -23 -7 -12 -9 -10 -7 8 1 19 17 33 17 15z m80 -26 c0 -5 -4 -5
-10 -2 -5 3 -10 14 -10 23 0 15 2 15 10 2 5 -8 10 -19 10 -23z m-265 3 c-3 -5
-12 -10 -18 -10 -7 0 -6 4 3 10 19 12 23 12 15 0z m663 -13 c9 4 13 2 9 -4
-10 -15 -67 -34 -67 -22 0 5 7 9 16 9 11 0 14 5 9 18 -5 13 -3 14 6 5 6 -6 18
-9 27 -6z m-711 -91 c-7 -17 14 -27 43 -21 11 2 18 0 15 -6 -4 -5 -10 -7 -15
-4 -9 5 -23 -21 -24 -44 -1 -8 -6 -16 -12 -18 -11 -4 -12 32 -1 43 13 13 7 25
-10 22 -19 -3 -25 22 -8 34 15 11 18 10 12 -6z m207 -3 c7 -17 -4 -44 -15 -38
-4 3 -6 12 -2 21 3 8 2 14 -3 13 -17 -3 -25 1 -20 9 8 13 35 10 40 -5z m161 6
c-4 -6 3 -5 14 3 18 11 23 11 30 -1 6 -9 11 -10 15 -2 4 6 12 11 18 11 6 0 6
-6 -2 -15 -7 -9 -18 -14 -24 -12 -6 3 -21 -5 -33 -16 -13 -11 -26 -17 -30 -13
-4 4 -1 11 7 16 10 6 11 10 3 10 -7 0 -17 -9 -23 -20 -6 -11 -15 -20 -20 -20
-11 0 32 69 43 70 5 0 5 -5 2 -11z m-114 -40 c-13 -10 -27 -19 -32 -19 -13 0
-11 28 3 36 8 5 9 1 4 -12 -6 -17 -4 -16 15 3 13 12 25 20 28 17 4 -3 -5 -14
-18 -25z m-97 -6 c7 -17 -6 -32 -45 -53 -12 -7 -15 -4 -14 10 2 25 15 39 15
17 0 -16 2 -16 18 1 10 9 14 19 10 20 -11 5 -10 22 1 22 5 0 12 -8 15 -17z
m1311 -50 c-8 -7 -20 -13 -27 -13 -11 0 -11 2 0 9 15 9 15 17 -1 46 -8 16 -6
16 15 -4 21 -21 23 -27 13 -38z m-35 17 c0 -5 -4 -10 -10 -10 -5 0 -10 5 -10
10 0 6 5 10 10 10 6 0 10 -4 10 -10z m-35 -20 c3 -5 -1 -10 -10 -10 -9 0 -13
5 -10 10 3 6 8 10 10 10 2 0 7 -4 10 -10z m-1532 -18 c-3 -7 -8 -11 -11 -8 -2
3 -13 1 -23 -5 -20 -10 -26 0 -9 17 15 15 49 12 43 -4z m1664 -19 c0 -7 -5
-12 -11 -10 -6 3 -10 10 -8 16 1 6 -2 11 -8 11 -5 0 -10 5 -10 10 0 6 7 6 18
-1 10 -7 19 -18 19 -26z m-277 -5 c0 -3 -11 -20 -25 -36 -13 -16 -21 -32 -18
-36 4 -4 -4 -17 -18 -29 -13 -12 -20 -19 -15 -14 19 14 34 7 29 -13 -3 -11 -9
-17 -14 -14 -5 3 -6 -3 -2 -12 5 -15 9 -14 30 10 13 15 20 32 17 38 -4 7 -2 8
4 4 7 -4 12 -1 12 9 0 11 5 15 15 11 9 -3 15 0 15 9 0 9 -6 12 -17 8 -10 -3
-7 3 7 12 14 10 31 25 39 34 11 13 12 13 8 1 -2 -8 3 -24 12 -35 15 -18 15
-19 -1 -6 -12 9 -18 10 -18 2 0 -6 3 -11 8 -12 4 0 14 -2 22 -4 10 -1 16 5 16
15 0 10 -4 18 -9 17 -21 -4 -17 22 5 33 21 10 21 10 6 -3 -10 -8 -18 -17 -18
-19 0 -3 8 -5 18 -4 19 1 43 36 35 50 -4 5 -1 6 5 2 5 -3 12 -3 15 1 2 5 2 1
0 -7 -3 -8 -5 -19 -6 -25 -1 -5 -6 -14 -12 -18 -6 -5 -4 -7 5 -4 8 2 14 10 12
17 -2 7 3 10 12 7 10 -4 13 -1 10 7 -3 7 2 16 10 19 10 4 13 1 10 -7 -3 -8 0
-17 5 -21 6 -3 9 -10 6 -15 -3 -4 2 -13 9 -19 12 -10 14 -9 11 6 -2 10 -4 18
-5 18 -1 0 -4 14 -6 30 -3 23 -2 26 6 14 14 -24 80 -88 80 -79 0 5 -6 15 -14
23 -9 8 -11 19 -6 28 7 11 10 10 16 -4 4 -10 13 -16 20 -13 7 3 23 -7 34 -21
16 -21 18 -28 8 -35 -10 -7 -9 -8 2 -5 8 2 14 12 12 21 -3 15 0 16 17 6 12 -6
21 -18 21 -28 0 -9 15 -44 33 -77 80 -145 83 -149 235 -327 72 -85 87 -110
119 -195 21 -54 49 -119 64 -144 63 -108 73 -140 73 -231 1 -49 0 -88 0 -88
-1 0 -23 12 -48 26 -47 26 -78 25 -42 -2 11 -7 17 -17 13 -20 -3 -3 -21 5 -39
19 -27 20 -38 23 -65 15 -18 -4 -35 -13 -38 -18 -3 -5 -19 -7 -35 -3 -19 3
-30 1 -30 -5 0 -6 -6 -9 -14 -6 -7 3 -26 -7 -42 -21 -16 -15 -22 -24 -14 -20
8 4 4 -3 -10 -14 -25 -21 -56 -29 -46 -12 4 5 -2 7 -13 4 -11 -3 -21 2 -25 12
-3 9 -2 13 4 10 6 -3 11 -3 11 2 11 75 -5 123 -47 142 -30 13 -71 14 -79 1 -3
-5 -11 -7 -18 -5 -7 2 -39 6 -72 8 -64 5 -138 34 -132 51 5 12 4 12 -148 16
-60 1 -115 6 -121 11 -8 6 -9 22 -4 45 6 26 5 37 -5 40 -8 4 -12 18 -10 37 2
18 4 32 5 32 9 0 2 59 -8 67 -7 6 -12 7 -11 2 4 -17 -13 -44 -27 -44 -8 0 -17
-7 -20 -15 -4 -8 -11 -15 -16 -15 -11 0 -1 78 12 95 4 6 4 19 -1 30 -11 29
-10 43 2 25 8 -12 10 -12 8 5 -2 34 0 36 37 20 48 -20 54 -19 24 5 -28 22 -17
26 23 8 30 -14 35 -35 12 -44 -9 -4 -15 -19 -15 -40 0 -39 17 -38 41 4 13 23
13 32 3 58 -13 30 -38 46 -96 60 -24 5 -28 11 -28 43 0 48 -55 142 -118 201
-94 88 -250 127 -328 81 -43 -26 -43 -26 -41 -1 1 13 6 19 15 15 7 -2 10 -1 7
4 -3 5 -1 12 5 16 5 3 10 12 10 18 0 7 -5 4 -11 -5 -5 -10 -15 -18 -20 -18 -6
0 -7 5 -3 11 4 7 8 26 9 43 4 47 4 48 15 41 5 -3 7 -12 4 -19 -3 -7 2 -19 10
-26 9 -7 13 -17 9 -23 -4 -6 -1 -7 6 -3 9 6 8 13 -5 27 -9 10 -13 19 -8 19 12
0 12 40 0 59 -6 10 -6 12 2 7 7 -4 12 -1 13 6 0 10 2 10 6 0 2 -6 10 -9 15 -6
7 4 8 2 4 -5 -4 -6 -12 -8 -18 -5 -6 4 -8 2 -5 -4 4 -5 16 -8 27 -5 11 3 18 9
15 12 -2 4 2 8 10 8 8 0 12 -4 9 -8 -2 -4 0 -10 6 -14 6 -4 7 -11 4 -17 -4 -7
-2 -8 5 -4 9 6 9 11 0 23 -11 12 -9 13 14 8 17 -5 27 -3 27 4 0 6 -6 8 -13 5
-8 -3 -20 3 -28 13 -13 17 -13 17 4 4 16 -13 20 -13 27 -1 5 8 6 18 4 22 -3 4
0 8 5 8 6 0 11 -6 11 -13 0 -7 8 -13 19 -14 14 -1 17 3 14 18 -3 10 -9 17 -13
14 -5 -3 -11 -2 -14 3 -3 5 2 9 11 9 9 0 18 -9 21 -19 5 -21 22 -24 22 -4 0
20 12 25 35 15 18 -9 18 -9 -2 -5 -14 2 -23 -1 -23 -8 0 -21 12 -26 34 -14 20
11 20 10 6 -7 -14 -17 -13 -18 3 -12 10 4 23 7 28 7 6 0 7 4 4 10 -3 6 1 7 10
4 13 -5 13 -9 3 -23 -7 -9 -8 -13 -3 -8 4 4 18 -1 29 -10 12 -10 18 -14 14 -9
-4 5 -2 16 5 25 10 14 10 14 -5 3 -11 -9 -18 -10 -23 -2 -3 5 -1 10 5 10 6 0
9 4 6 9 -4 5 4 7 16 4 19 -4 20 -3 8 7 -12 9 -11 10 9 5 13 -4 21 -3 18 2 -3
5 12 9 35 8 23 -1 44 -7 46 -13 2 -7 8 -12 13 -12 6 0 7 5 4 10 -10 17 2 11
16 -7 7 -10 10 -15 5 -11 -5 4 -18 3 -29 -3 -14 -8 -18 -8 -12 0 4 7 1 10 -7
9 -7 -2 -12 3 -10 10 1 6 -2 12 -8 12 -5 0 -10 -4 -10 -9 0 -6 -9 -8 -20 -6
-11 2 -18 0 -15 -5 3 -6 -1 -7 -9 -4 -9 3 -16 1 -16 -4 0 -16 18 -24 25 -12 5
8 13 6 26 -6 11 -9 22 -14 26 -11 3 4 1 7 -6 7 -7 0 -9 5 -6 10 5 8 11 7 21
-1 8 -6 14 -8 14 -4 0 5 10 0 23 -11 12 -10 16 -12 10 -4 -14 15 -18 34 -5 27
4 -3 16 -1 27 4 13 5 15 8 5 8 -16 1 -47 41 -31 41 5 0 12 -7 15 -16 3 -8 10
-13 15 -10 10 6 34 -18 26 -26 -3 -2 2 -5 10 -5 20 0 19 13 -1 21 -14 5 -14 9
-3 23 10 12 10 14 2 9 -7 -4 -13 -2 -13 3 0 13 6 14 28 2 15 -8 17 -4 16 24
-2 31 0 33 17 22 10 -6 19 -15 19 -19z m-146 -11 c4 4 4 -1 0 -12 -5 -11 -9
-14 -12 -7 -2 7 -7 10 -11 8 -4 -3 -8 1 -8 9 0 10 4 12 12 5 7 -5 15 -7 19 -3z
m58 1 c-7 -7 -8 -16 -2 -23 7 -8 5 -12 -4 -12 -8 0 -13 5 -12 11 2 15 16 36
24 36 3 0 1 -5 -6 -12z m125 -10 c-3 -8 -6 -5 -6 6 -1 11 2 17 5 13 3 -3 4
-12 1 -19z m-457 -2 c-7 -7 -13 -7 -20 0 -6 6 -3 10 10 10 13 0 16 -4 10 -10z
m60 0 c-4 -4 -16 -4 -26 2 -16 9 -14 10 8 9 15 -1 23 -6 18 -11z m34 -18 c-3
-4 -13 -7 -22 -7 -16 1 -16 2 0 6 11 3 15 11 12 21 -5 14 -4 14 4 2 6 -8 8
-18 6 -22z m40 17 c3 -9 -3 -19 -17 -25 -19 -10 -20 -9 -6 2 9 7 14 19 12 26
-6 17 4 15 11 -3z m26 0 c0 -8 -2 -15 -4 -15 -2 0 -6 7 -10 15 -3 8 -1 15 4
15 6 0 10 -7 10 -15z m65 5 c-3 -5 -12 -10 -18 -10 -7 0 -6 4 3 10 19 12 23
12 15 0z m-419 -42 c4 -7 3 -8 -4 -4 -7 4 -12 2 -12 -5 0 -7 -3 -10 -6 -6 -6
5 3 27 11 27 2 0 7 -5 11 -12z m424 -14 c0 -8 -19 -13 -24 -6 -3 5 1 9 9 9 8
0 15 -2 15 -3z m-454 -22 c-3 -3 2 -11 12 -19 15 -13 15 -13 -4 -4 -25 12 -41
43 -18 34 8 -3 12 -8 10 -11z m-31 -12 c-3 -5 -1 -10 6 -10 7 0 10 -3 6 -6 -9
-9 -28 6 -22 17 4 5 8 9 11 9 3 0 2 -4 -1 -10z m1786 -213 c-10 -9 -11 -8 -5
6 3 10 9 15 12 12 3 -3 0 -11 -7 -18z m37 -213 c-1 -5 -9 -9 -16 -10 -10 -2
-11 1 -1 12 12 14 24 13 17 -2z m-1284 -317 c-1 -80 -10 -98 -42 -90 -43 10
-51 28 -26 59 8 10 12 13 8 5 -4 -9 -3 -12 4 -7 6 4 9 13 5 21 -6 18 22 65 40
65 8 0 12 -17 11 -53z m1291 23 c-3 -5 -1 -10 6 -10 7 0 10 -3 6 -6 -9 -9 -28
6 -22 17 4 5 8 9 11 9 3 0 2 -4 -1 -10z m22 -122 c-3 -8 -6 -5 -6 6 -1 11 2
17 5 13 3 -3 4 -12 1 -19z m-1554 4 l48 -2 -15 -29 c-9 -17 -47 -48 -93 -76
-43 -26 -89 -55 -103 -64 -14 -8 -28 -14 -32 -13 -5 1 -8 -2 -8 -8 0 -5 -4
-10 -10 -10 -5 0 -7 8 -3 18 5 16 5 16 -8 0 -13 -16 -26 -16 -188 -2 -96 7
-179 18 -185 24 -13 13 11 31 111 80 107 51 179 72 278 79 77 6 100 6 208 3z
m-1209 -137 c52 -25 96 -45 99 -45 11 0 146 -90 154 -103 4 -6 18 -36 29 -65
l22 -53 -24 16 c-14 9 -64 38 -112 64 -146 80 -205 122 -244 171 -60 76 -53
77 76 15z m1446 25 c-20 -13 -33 -13 -25 0 3 6 14 10 23 10 15 0 15 -2 2 -10z
m616 -129 c-17 -32 -30 -43 -19 -16 3 9 -2 24 -11 34 -13 14 -14 21 -5 27 7 4
10 3 6 -3 -4 -6 0 -16 7 -22 11 -9 16 -9 22 0 4 8 -9 27 -34 51 -23 21 -42 42
-42 46 0 4 21 -14 46 -39 l46 -46 -16 -32z m491 -403 c-3 -8 -6 -5 -6 6 -1 11
2 17 5 13 3 -3 4 -12 1 -19z m-286 -241 c16 -16 29 -34 29 -40 0 -5 -11 2 -24
16 -15 16 -40 29 -64 33 -49 8 -53 31 -4 26 21 -3 45 -16 63 -35z m-191 13 c0
-5 -5 -10 -11 -10 -5 0 -7 5 -4 10 3 6 8 10 11 10 2 0 4 -4 4 -10z m40 -10
c-6 -11 -16 -20 -22 -20 -6 0 -3 9 7 20 10 11 20 20 22 20 2 0 -1 -9 -7 -20z
m563 -50 c3 -11 1 -18 -4 -14 -5 3 -9 12 -9 20 0 20 7 17 13 -6z m-148 -350
c3 -6 -4 -10 -17 -10 -18 0 -20 2 -8 10 19 12 18 12 25 0z m15 -34 c0 -2 -8
-10 -17 -17 -16 -13 -17 -12 -4 4 13 16 21 21 21 13z m-7 -133 c6 -75 5 -82
-13 -88 -13 -4 -20 -15 -20 -31 0 -13 -4 -24 -9 -24 -4 0 -6 -22 -3 -50 3 -29
0 -50 -5 -50 -15 0 -47 65 -40 81 4 10 6 9 6 -4 1 -10 8 -25 16 -33 13 -14 15
-13 15 5 0 12 -5 21 -11 21 -5 0 -8 4 -5 9 3 5 -1 21 -8 37 -21 43 -30 77 -18
70 9 -5 30 14 46 41 4 8 2 11 -6 8 -8 -3 -13 3 -13 19 0 13 3 22 7 20 4 -3 17
9 29 26 13 16 23 29 24 27 1 -1 5 -39 8 -84z m-83 7 c0 -5 -5 -10 -11 -10 -5
0 -7 5 -4 10 3 6 8 10 11 10 2 0 4 -4 4 -10z m385 -148 c-3 -3 -11 0 -18 7 -9
10 -8 11 6 5 10 -3 15 -9 12 -12z m85 -42 c0 -5 -2 -10 -4 -10 -3 0 -8 5 -11
10 -3 6 -1 10 4 10 6 0 11 -4 11 -10z m-10 -346 c0 -14 -3 -14 -15 -4 -8 7
-15 14 -15 16 0 2 7 4 15 4 8 0 15 -7 15 -16z m-60 -78 c0 -3 -4 -8 -10 -11
-5 -3 -10 -1 -10 4 0 6 5 11 10 11 6 0 10 -2 10 -4z m-228 -68 c-7 -7 -12 -8
-12 -2 0 14 12 26 19 19 2 -3 -1 -11 -7 -17z m-48 -31 c-3 -8 -28 -26 -57 -41
-29 -15 -45 -21 -37 -14 9 7 14 21 12 31 -2 12 3 17 17 17 11 0 23 5 26 10 9
15 45 12 39 -3z m-94 -1 c0 -2 -8 -10 -17 -17 -16 -13 -17 -12 -4 4 13 16 21
21 21 13z m0 -30 c0 -2 -6 -9 -14 -15 -11 -9 -16 -9 -22 0 -4 7 -3 9 4 5 6 -3
13 -2 17 4 6 10 15 14 15 6z m-52 -66 c-7 -10 -14 -18 -15 -16 -6 6 9 36 18
36 5 0 4 -9 -3 -20z m402 -59 c0 -5 -7 -11 -15 -15 -9 -3 -15 0 -15 9 0 8 7
15 15 15 8 0 15 -4 15 -9z"/>
<path d="M5311 5954 c0 -11 3 -14 6 -6 3 7 2 16 -1 19 -3 4 -6 -2 -5 -13z"/>
<path d="M3095 6370 c-4 -6 -11 -8 -16 -5 -5 4 -9 -1 -9 -9 0 -18 26 -11 34
10 6 16 0 19 -9 4z"/>
<path d="M2970 6335 c-11 -13 -10 -14 4 -9 9 3 16 10 16 15 0 13 -6 11 -20 -6z"/>
<path d="M2943 6286 c-12 -14 -7 -26 9 -26 5 0 6 5 2 12 -5 8 -2 9 11 4 15 -5
16 -4 5 9 -15 18 -12 18 -27 1z"/>
<path d="M4573 5865 c0 -8 4 -15 9 -15 4 0 8 4 8 9 0 6 -4 12 -8 15 -5 3 -9
-1 -9 -9z"/>
<path d="M4370 5860 c0 -5 5 -10 10 -10 6 0 10 5 10 10 0 6 -4 10 -10 10 -5 0
-10 -4 -10 -10z"/>
<path d="M3798 5839 c-10 -5 -18 -14 -18 -19 0 -6 8 -10 18 -10 14 0 15 2 2
10 -13 8 -12 10 3 10 9 0 17 5 17 10 0 12 0 12 -22 -1z"/>
<path d="M4273 5835 c0 -8 4 -12 9 -9 5 3 6 10 3 15 -9 13 -12 11 -12 -6z"/>
<path d="M4466 5837 c3 -10 9 -15 12 -12 3 3 0 11 -7 18 -10 9 -11 8 -5 -6z"/>
<path d="M4500 5840 c-13 -8 -12 -10 3 -10 9 0 17 5 17 10 0 12 -1 12 -20 0z"/>
<path d="M3748 5826 c4 -6 7 -20 7 -30 0 -11 6 -20 13 -22 7 -1 8 0 3 2 -5 3
-7 18 -5 33 3 20 0 28 -10 28 -9 0 -12 -5 -8 -11z"/>
<path d="M4533 5814 c0 -17 2 -22 7 -13 5 6 6 18 3 26 -8 19 -10 16 -10 -13z"/>
<path d="M4436 5822 c-3 -5 1 -9 9 -9 8 0 12 4 9 9 -3 4 -7 8 -9 8 -2 0 -6 -4
-9 -8z"/>
<path d="M4230 5805 c-7 -8 -9 -15 -6 -15 4 0 14 7 22 15 9 8 11 15 6 15 -5 0
-15 -7 -22 -15z"/>
<path d="M4270 5795 c0 -8 2 -15 4 -15 2 0 13 -3 23 -6 17 -5 17 -5 0 6 -9 6
-15 15 -12 21 4 5 1 9 -4 9 -6 0 -11 -7 -11 -15z"/>
<path d="M3847 5786 c-16 -13 -16 -14 0 -27 12 -10 15 -11 9 -1 -4 7 -2 19 4
27 15 18 11 19 -13 1z"/>
<path d="M4376 5787 c3 -8 11 -14 19 -14 20 0 19 4 -5 17 -15 8 -18 8 -14 -3z"/>
<path d="M3955 5780 c3 -5 8 -10 11 -10 2 0 4 5 4 10 0 6 -5 10 -11 10 -5 0
-7 -4 -4 -10z"/>
<path d="M4006 5782 c-3 -5 1 -9 9 -9 8 0 12 4 9 9 -3 4 -7 8 -9 8 -2 0 -6 -4
-9 -8z"/>
<path d="M4350 5776 c0 -8 4 -17 9 -20 5 -4 7 3 4 14 -6 23 -13 26 -13 6z"/>
<path d="M3715 5770 c-4 -6 -11 -7 -17 -4 -6 4 -8 2 -4 -4 3 -5 2 -12 -3 -14
-5 -1 -3 -12 5 -23 14 -19 14 -19 12 5 -2 14 2 24 8 23 6 -1 11 5 11 13 0 17
-4 18 -12 4z"/>
<path d="M4074 5766 c1 -8 5 -18 8 -22 4 -3 5 1 4 10 -1 8 -5 18 -8 22 -4 3
-5 -1 -4 -10z"/>
<path d="M3634 5756 c1 -8 5 -18 8 -22 4 -3 5 1 4 10 -1 8 -5 18 -8 22 -4 3
-5 -1 -4 -10z"/>
<path d="M3742 5761 c5 -16 35 -24 43 -11 3 5 -3 7 -12 6 -10 -2 -22 2 -26 8
-6 7 -7 6 -5 -3z"/>
<path d="M3880 5760 c-9 -6 -10 -10 -3 -10 6 0 15 5 18 10 8 12 4 12 -15 0z"/>
<path d="M3947 5759 c7 -7 15 -10 18 -7 3 3 -2 9 -12 12 -14 6 -15 5 -6 -5z"/>
<path d="M4031 5747 c-13 -21 -12 -21 5 -5 10 10 16 20 13 22 -3 3 -11 -5 -18
-17z"/>
<path d="M3817 5745 c3 -8 9 -12 14 -9 12 7 11 11 -5 17 -10 4 -13 1 -9 -8z"/>
<path d="M3995 5749 c-4 -6 -5 -12 -2 -15 2 -3 7 2 10 11 7 17 1 20 -8 4z"/>
<path d="M3910 5746 c0 -2 7 -7 16 -10 8 -3 12 -2 9 4 -6 10 -25 14 -25 6z"/>
<path d="M3815 5680 c-3 -5 -1 -10 4 -10 6 0 11 5 11 10 0 6 -2 10 -4 10 -3 0
-8 -4 -11 -10z"/>
<path d="M4620 5470 c0 -5 5 -10 10 -10 6 0 10 5 10 10 0 6 -4 10 -10 10 -5 0
-10 -4 -10 -10z"/>
<path d="M4155 5359 c-4 -6 -5 -13 -2 -16 7 -7 27 6 27 18 0 12 -17 12 -25 -2z"/>
<path d="M4210 5346 c0 -8 7 -17 16 -20 19 -7 47 12 38 25 -9 15 -54 10 -54
-5z"/>
<path d="M4271 5291 c-38 -48 -39 -66 -3 -68 15 0 41 -4 57 -8 l30 -7 -23 17
c-20 15 -23 25 -20 61 2 24 0 44 -4 44 -3 0 -20 -18 -37 -39z"/>
<path d="M4261 5087 c0 -10 -10 -36 -21 -57 -11 -22 -18 -40 -15 -40 10 0 46
83 42 98 -4 15 -5 15 -6 -1z"/>
<path d="M4053 5014 c-8 -22 5 -30 23 -12 14 14 14 16 -1 21 -9 4 -18 1 -22
-9z"/>
<path d="M8785 7436 c17 -14 33 -26 38 -26 4 0 7 -5 7 -11 0 -7 -10 -5 -25 5
-28 19 -39 21 -29 5 3 -6 -5 -3 -20 6 -15 10 -24 20 -22 23 3 3 14 -1 23 -9
17 -12 17 -12 1 6 -17 18 -19 18 -35 3 -13 -14 -14 -20 -4 -32 8 -9 17 -13 22
-10 5 2 22 -2 38 -11 38 -19 47 -19 55 1 6 17 -10 55 -22 52 -4 -1 -18 3 -32
10 -22 11 -21 10 5 -12z"/>
<path d="M8676 7381 c-16 -6 -17 -9 -5 -13 8 -3 23 0 34 8 21 16 5 18 -29 5z"/>
<path d="M8698 7364 c-15 -14 8 -43 45 -60 23 -10 65 -32 92 -50 47 -29 131
-56 110 -35 -6 5 -23 12 -38 15 -32 5 -96 42 -142 80 l-30 24 54 -18 c29 -10
62 -25 72 -33 12 -11 19 -12 22 -4 2 6 18 -1 39 -18 32 -25 99 -50 73 -27 -35
31 -174 104 -224 117 -67 17 -66 17 -73 9z"/>
<path d="M8660 7340 c0 -5 5 -10 11 -10 5 0 7 5 4 10 -3 6 -8 10 -11 10 -2 0
-4 -4 -4 -10z"/>
<path d="M8964 7203 c3 -4 26 -9 51 -13 25 -4 42 -4 38 0 -9 9 -97 21 -89 13z"/>
<path d="M4695 6958 c-23 -12 -54 -48 -55 -62 0 -5 10 0 23 11 12 11 32 26 45
32 12 6 22 16 22 21 0 13 -10 12 -35 -2z"/>
<path d="M3480 6933 c0 -5 12 -20 26 -34 24 -21 26 -22 16 -3 -13 25 -42 50
-42 37z"/>
<path d="M3875 6680 c10 -16 45 -32 45 -20 0 5 -7 10 -15 10 -8 0 -15 5 -15
10 0 6 -5 10 -11 10 -5 0 -7 -4 -4 -10z"/>
<path d="M2335 6600 c-3 -5 -1 -10 4 -10 6 0 11 5 11 10 0 6 -2 10 -4 10 -3 0
-8 -4 -11 -10z"/>
<path d="M4462 6582 c2 -5 -8 -18 -21 -29 l-24 -20 23 -6 c16 -4 20 -3 12 5
-8 8 -5 16 10 28 15 12 18 19 9 24 -6 4 -10 3 -9 -2z"/>
<path d="M4490 6560 c-13 -8 -12 -10 3 -10 9 0 17 -6 17 -12 0 -9 3 -8 9 2 17
25 -1 38 -29 20z"/>
<path d="M3370 6140 c5 -37 1 -43 -17 -29 -16 13 -17 12 -4 -4 11 -14 17 -15
30 -5 9 7 17 12 18 13 1 0 -5 9 -14 20 -10 14 -14 15 -13 5z"/>
<path d="M3390 6143 c0 -2 5 -9 10 -16 6 -7 17 -21 25 -32 13 -17 14 -17 9 -2
-5 14 -2 18 11 15 10 -2 20 2 22 9 3 7 -5 10 -21 9 -15 -2 -26 2 -26 9 0 6 -7
12 -15 12 -8 0 -15 -2 -15 -4z"/>
<path d="M3570 6140 c0 -5 5 -10 11 -10 5 0 7 -5 3 -12 -4 -7 -3 -8 5 -4 9 6
9 11 0 22 -14 17 -19 18 -19 4z"/>
<path d="M3260 6118 c0 -5 -4 -7 -9 -4 -5 3 -15 -2 -22 -11 -8 -10 -9 -14 -2
-10 6 4 15 3 18 -3 5 -8 12 -7 22 2 12 10 18 9 29 -7 8 -10 17 -15 21 -12 3 4
3 7 -1 7 -4 0 -2 10 4 23 10 20 10 20 -3 4 -12 -14 -16 -15 -26 -4 -6 8 -9 16
-6 19 3 2 -2 5 -10 5 -8 0 -15 -4 -15 -9z m10 -14 c0 -8 -19 -13 -24 -6 -3 5
1 9 9 9 8 0 15 -2 15 -3z"/>
<path d="M3166 6094 c-5 -14 -4 -15 9 -4 17 14 19 20 6 20 -5 0 -12 -7 -15
-16z"/>
<path d="M3007 6073 c-14 -13 -6 -18 28 -19 21 0 36 5 40 14 4 11 2 12 -8 4
-8 -7 -18 -7 -27 -2 -18 12 -25 12 -33 3z"/>
<path d="M2913 6053 c-3 -10 -15 -29 -27 -43 -13 -15 -15 -20 -4 -11 20 15 38
7 39 -17 0 -11 2 -12 6 -4 3 7 0 19 -7 27 -7 8 -8 20 -4 27 10 15 14 38 8 38
-3 0 -7 -8 -11 -17z"/>
<path d="M3430 6020 c0 -6 -4 -9 -8 -6 -5 3 -9 -1 -9 -9 0 -19 5 -19 23 -1 9
9 10 17 4 21 -5 3 -10 1 -10 -5z"/>
<path d="M3380 6001 c0 -6 4 -12 8 -15 5 -3 9 1 9 9 0 8 -4 15 -9 15 -4 0 -8
-4 -8 -9z"/>
<path d="M2883 5975 c-10 -11 -9 -13 6 -12 10 0 18 7 18 14 0 17 -9 16 -24 -2z"/>
<path d="M3320 5986 c0 -2 8 -10 18 -17 15 -13 16 -12 3 4 -13 16 -21 21 -21
13z"/>
<path d="M3145 5969 c-4 -6 -5 -12 -2 -15 2 -3 7 2 10 11 7 17 1 20 -8 4z"/>
<path d="M3360 5976 c0 -2 7 -7 16 -10 8 -3 12 -2 9 4 -6 10 -25 14 -25 6z"/>
<path d="M3206 5937 c3 -10 9 -15 12 -12 3 3 0 11 -7 18 -10 9 -11 8 -5 -6z"/>
<path d="M3308 5906 c4 -15 7 -17 10 -6 3 8 10 18 16 22 6 4 1 6 -10 6 -16 -2
-20 -7 -16 -22z"/>
<path d="M1801 5877 c-25 -58 -44 -127 -37 -134 3 -3 8 8 11 23 4 16 18 55 31
88 14 32 22 61 20 64 -3 3 -14 -16 -25 -41z"/>
<path d="M2973 5898 c0 -13 1 -17 4 -10 3 6 10 9 16 5 7 -4 6 1 -2 10 -17 21
-17 21 -18 -5z"/>
<path d="M3220 5900 c0 -5 9 -9 20 -7 30 5 32 12 5 15 -14 1 -25 -3 -25 -8z"/>
<path d="M3118 5883 c7 -3 16 -2 19 1 4 3 -2 6 -13 5 -11 0 -14 -3 -6 -6z"/>
<path d="M2889 5863 c-13 -16 -12 -17 4 -4 9 7 17 15 17 17 0 8 -8 3 -21 -13z"/>
<path d="M3090 5877 c0 -2 6 -10 14 -16 11 -9 16 -9 22 1 4 7 4 10 -1 6 -4 -4
-14 -3 -22 3 -7 6 -13 9 -13 6z"/>
<path d="M2776 5855 c-3 -9 -11 -13 -17 -9 -8 5 -9 3 -4 -5 6 -10 11 -9 23 3
9 8 13 18 10 21 -3 3 -8 -1 -12 -10z"/>
<path d="M3017 5857 c-3 -7 3 -13 14 -13 13 0 15 3 7 13 -6 7 -12 13 -13 13
-2 0 -5 -6 -8 -13z"/>
<path d="M3073 5855 c0 -8 4 -12 9 -9 5 3 6 10 3 15 -9 13 -12 11 -12 -6z"/>
<path d="M3138 5852 c-11 -15 -11 -15 2 -6 8 6 23 10 33 8 11 -1 16 0 13 4
-13 12 -36 10 -48 -6z"/>
<path d="M2719 5813 c-13 -16 -12 -17 4 -4 9 7 17 15 17 17 0 8 -8 3 -21 -13z"/>
<path d="M3010 5820 c0 -5 5 -10 11 -10 5 0 7 5 4 10 -3 6 -8 10 -11 10 -2 0
-4 -4 -4 -10z"/>
<path d="M3183 5690 c-13 -5 -23 -12 -23 -15 0 -9 16 -5 36 10 22 16 19 18
-13 5z"/>
<path d="M2319 5644 c-23 -25 -23 -26 -2 -13 13 7 25 19 27 26 8 19 2 16 -25
-13z"/>
<path d="M2225 5539 c-4 -6 -4 -13 -1 -16 8 -8 36 5 36 17 0 13 -27 13 -35 -1z"/>
<path d="M6307 5478 c3 -13 20 -39 37 -58 17 -19 22 -28 11 -20 -20 14 -20 14
-1 -7 10 -13 22 -20 26 -18 4 2 15 -4 25 -15 10 -11 15 -20 10 -20 -4 0 -2 -6
4 -13 6 -8 7 -18 3 -22 -4 -5 -1 -5 6 -1 10 6 10 11 1 22 -9 10 -9 14 0 14 6
0 14 -7 17 -15 4 -8 10 -15 15 -15 6 0 19 -9 31 -20 12 -11 28 -20 36 -20 8 0
12 -6 9 -14 -3 -8 1 -13 11 -12 9 0 16 -5 14 -13 -6 -27 9 -49 38 -53 17 -3
26 0 23 5 -3 5 0 8 8 5 17 -6 30 -66 16 -75 -5 -3 -7 -1 -3 5 3 6 2 13 -3 16
-10 7 -23 -19 -14 -28 11 -11 23 -6 45 16 12 12 29 23 36 25 35 5 73 27 68 39
-4 10 1 11 17 5 12 -4 31 -26 42 -49 l20 -41 33 34 c17 19 32 41 32 50 0 10
10 15 34 15 19 0 38 5 41 10 4 6 13 7 24 1 13 -7 27 -4 51 10 33 21 32 33 -5
42 -20 4 -20 4 0 13 67 30 179 124 118 99 -10 -4 -38 -13 -63 -20 -25 -7 -66
-24 -91 -39 -39 -22 -64 -27 -175 -35 -136 -10 -128 -11 -239 38 -27 13 -66
29 -85 38 -48 20 -130 76 -159 107 -13 14 -28 23 -33 20 -5 -3 -15 -1 -23 6
-11 9 -12 7 -8 -12z m366 -223 c16 -11 15 -13 -14 -19 -19 -3 -33 -13 -36 -25
-4 -17 -8 -18 -24 -8 -23 14 -25 35 -4 43 23 9 18 20 -15 34 -35 15 -54 35
-45 50 5 9 59 -20 138 -75z m64 -30 c0 -12 -3 -12 -16 -3 -9 7 -18 14 -20 15
-2 2 5 3 16 3 11 0 20 -7 20 -15z"/>
<path d="M2 5385 c0 -55 2 -92 5 -82 2 9 13 17 24 17 26 0 57 16 91 48 16 15
33 22 43 18 11 -4 21 3 33 24 9 16 26 34 37 39 20 9 19 10 -2 10 -12 1 -28 -5
-35 -12 -7 -8 -19 -12 -27 -9 -8 3 -11 0 -7 -6 6 -10 -23 -26 -32 -17 -3 3 1
5 8 5 7 0 11 3 8 6 -4 3 -21 -2 -38 -11 -44 -23 -72 -13 -92 32 l-16 38 0
-100z"/>
<path d="M3234 5345 c-9 -14 -14 -28 -11 -31 3 -3 13 8 22 25 19 37 12 41 -11
6z"/>
<path d="M6396 5317 c3 -10 9 -15 12 -12 3 3 0 11 -7 18 -10 9 -11 8 -5 -6z"/>
<path d="M7269 5311 c-29 -13 -34 -19 -23 -29 20 -18 42 -15 49 8 3 11 11 20
16 20 5 0 9 5 9 10 0 13 -8 12 -51 -9z"/>
<path d="M6464 5275 c1 -8 6 -18 11 -22 4 -4 5 -3 2 4 -4 6 -2 13 5 15 8 3 6
6 -4 10 -10 4 -15 2 -14 -7z"/>
<path d="M6490 5241 c0 -6 4 -13 10 -16 6 -3 7 1 4 9 -7 18 -14 21 -14 7z"/>
<path d="M7543 5184 c-24 -25 -30 -40 -14 -29 5 3 13 0 17 -6 4 -7 3 -9 -4 -5
-6 3 -16 -2 -22 -11 -11 -17 -11 -17 -6 0 3 9 1 17 -4 17 -6 0 -10 -5 -10 -11
0 -5 -4 -7 -10 -4 -5 3 -10 1 -10 -6 0 -8 -13 -10 -39 -6 -22 3 -44 0 -50 -6
-8 -8 -10 -2 -7 21 3 33 -8 36 -16 4 -8 -30 10 -62 42 -73 17 -6 27 -16 23
-22 -4 -6 -1 -7 7 -2 8 5 18 1 27 -10 7 -11 13 -15 13 -9 0 5 5 2 10 -6 6 -10
10 -11 10 -2 0 6 8 12 18 13 10 0 12 3 5 6 -9 3 -10 10 -3 22 5 10 6 22 2 26
-4 5 -1 5 6 1 7 -4 15 0 19 11 3 10 14 26 25 36 24 24 23 36 -3 30 -21 -6 -21
-5 -4 21 21 32 8 32 -22 0z"/>
<path d="M7316 5103 c-6 -14 -5 -15 5 -6 7 7 10 15 7 18 -3 3 -9 -2 -12 -12z"/>
<path d="M570 4961 c0 -5 14 -14 30 -21 24 -10 28 -16 19 -26 -6 -8 -8 -23 -3
-36 4 -13 8 -31 9 -40 4 -40 31 -40 175 1 17 5 24 13 23 26 -1 11 5 24 13 28
11 6 21 37 12 37 -2 0 -24 -7 -50 -14 -43 -14 -46 -13 -51 5 -7 25 -26 24 -35
0 -7 -19 -10 -18 -62 15 -54 34 -80 42 -80 25z"/>
<path d="M5940 4588 c0 -7 18 -30 40 -53 l39 -40 -57 2 c-31 2 -63 5 -69 8 -7
2 -13 -2 -13 -9 0 -8 33 -22 86 -36 96 -25 153 -56 154 -83 0 -10 -5 -15 -11
-12 -6 4 -5 -2 3 -14 7 -12 16 -21 21 -21 4 0 6 4 3 9 -3 5 1 11 9 14 10 4 12
1 8 -10 -4 -10 -2 -14 5 -9 6 3 14 1 17 -5 4 -5 12 -8 19 -6 6 3 17 -2 24 -9
7 -8 11 -14 8 -14 -3 0 7 -13 22 -28 15 -15 31 -26 36 -23 5 2 7 -2 4 -11 -4
-9 0 -15 8 -15 8 0 14 4 14 8 0 4 9 6 20 4 34 -7 22 4 -30 27 -27 12 -46 26
-43 31 3 6 1 7 -5 3 -7 -4 -12 -2 -12 3 0 15 -2 15 77 -18 38 -17 84 -29 101
-29 36 1 57 -13 57 -40 0 -11 10 -18 30 -20 17 -2 35 -8 42 -13 7 -7 14 -6 18
1 13 21 25 -2 19 -38 -3 -20 -1 -50 5 -66 9 -22 8 -32 -1 -45 -12 -14 -11 -14
5 -2 15 12 21 9 19 -10 -1 -3 5 -6 13 -6 7 0 11 7 8 14 -5 12 0 12 31 -1 26
-11 36 -12 36 -3 0 7 9 1 19 -12 10 -13 25 -22 36 -20 33 7 27 28 -14 49 -23
11 -41 25 -41 30 0 6 18 1 40 -10 42 -21 75 -27 65 -10 -3 6 -1 10 4 10 6 0
11 -4 11 -8 0 -4 16 -6 36 -4 24 3 39 0 45 -9 6 -11 9 -10 15 5 4 10 3 21 -2
25 -5 3 -16 15 -24 25 -14 18 -13 19 2 13 12 -4 15 -2 12 8 -4 10 -18 12 -54
8 -36 -4 -55 -1 -79 13 -17 10 -26 21 -20 24 6 4 3 12 -7 21 -16 12 -17 12 -9
-1 4 -8 -6 -2 -24 15 -26 24 -29 32 -18 40 7 5 16 18 20 29 6 16 3 18 -18 14
-19 -4 -29 0 -36 14 -15 29 -3 51 23 45 31 -8 108 12 108 29 0 7 25 36 55 65
54 51 66 72 27 48 -24 -15 -48 -7 -55 20 -3 12 -1 19 3 16 10 -6 80 26 80 36
0 5 16 11 35 15 19 3 35 10 35 15 0 5 -10 7 -22 4 -13 -3 -52 -12 -88 -20 -67
-14 -223 -87 -272 -127 l-28 -22 -27 21 c-19 13 -30 33 -34 58 -6 37 -30 65
-55 65 -7 0 -27 -12 -44 -26 -26 -22 -30 -31 -25 -55 l7 -29 -39 17 c-21 8
-54 15 -73 14 -74 -3 -142 21 -265 94 -45 27 -65 30 -65 13z m307 -226 c13
-10 19 -22 15 -29 -5 -7 -18 0 -41 22 -24 24 -28 32 -15 29 10 -3 29 -13 41
-22z"/>
<path d="M1415 4500 c-3 -5 -1 -10 4 -10 6 0 11 5 11 10 0 6 -2 10 -4 10 -3 0
-8 -4 -11 -10z"/>
<path d="M1447 4499 c7 -7 15 -10 18 -7 3 3 -2 9 -12 12 -14 6 -15 5 -6 -5z"/>
<path d="M1465 4480 c-22 -3 -51 -12 -64 -19 -14 -8 -21 -9 -17 -2 13 20 0 11
-44 -30 l-43 -41 -5 -89 c-5 -85 -6 -91 -36 -116 -17 -14 -45 -32 -63 -41 -23
-11 -34 -23 -35 -41 -4 -57 -3 -106 4 -111 6 -5 11 -1078 6 -1248 0 -29 1 -54
3 -56 2 -3 3 -25 1 -50 -3 -37 -7 -44 -24 -43 -13 1 -18 7 -15 19 3 10 1 16
-4 12 -5 -3 -9 -1 -9 5 0 6 -7 8 -15 4 -10 -3 -15 0 -13 8 2 7 -3 13 -10 14
-8 0 -19 7 -25 15 -17 22 -41 25 -33 4 3 -9 1 -23 -5 -30 -12 -15 -30 -19 -27
-6 1 4 -1 22 -5 40 -5 27 -10 32 -26 27 -38 -12 -58 -13 -72 -4 -13 8 -6 11
17 8 4 0 11 5 15 13 7 10 9 10 9 1 0 -7 4 -13 8 -13 5 0 9 18 10 41 1 22 -2
38 -7 35 -11 -7 -21 16 -16 40 2 11 4 23 4 27 1 5 6 5 13 1 6 -4 8 -3 5 4 -9
14 -42 8 -42 -8 0 -9 -18 -14 -54 -16 -75 -4 -89 -11 -65 -29 19 -13 19 -14
-1 -11 -26 4 -41 -4 -24 -14 10 -7 10 -12 -1 -25 -16 -19 -23 -48 -10 -40 5 3
12 0 16 -6 4 -8 3 -9 -4 -5 -7 4 -12 1 -12 -6 0 -9 -3 -9 -10 2 -9 13 -11 13
-20 0 -10 -16 -11 -16 -15 55 -1 17 -3 33 -5 38 -1 4 -3 13 -4 20 0 6 -10 12
-21 12 -14 0 -21 -8 -23 -25 -2 -14 -11 -33 -19 -42 -9 -10 -14 -29 -11 -45 3
-22 0 -29 -13 -29 -10 0 -15 6 -11 15 4 11 -2 13 -30 8 -21 -3 -40 -1 -47 6
-14 14 -25 2 -17 -18 3 -10 11 -13 18 -9 10 6 11 5 1 -8 -7 -8 -11 -17 -9 -19
2 -2 -5 -13 -15 -23 -11 -11 -19 -15 -19 -10 0 16 -76 16 -90 -1 -7 -8 -23
-15 -36 -15 -18 0 -24 -6 -24 -21 0 -12 -5 -19 -12 -16 -8 2 -12 20 -11 49 l2
46 -44 7 c-25 3 -46 9 -46 13 -1 4 -3 16 -4 27 -1 11 -5 45 -9 75 -4 30 -7 97
-6 148 1 86 -1 94 -19 99 -11 3 -23 14 -27 26 -6 18 -7 18 -16 4 -5 -10 -17
-17 -27 -17 -34 0 -40 -22 -37 -125 2 -55 -1 -105 -6 -112 -6 -7 -19 -9 -39
-3 l-29 9 0 -910 0 -909 4530 0 4530 0 0 130 c0 74 -4 130 -9 130 -6 0 -11
-15 -13 -32 -3 -30 -6 -33 -38 -35 -27 -1 -31 1 -17 8 10 6 17 22 17 39 0 29
-1 30 -50 30 -49 0 -100 16 -100 32 0 4 -7 8 -15 8 -20 0 -57 41 -51 57 7 18
-4 16 -18 -3 -14 -18 -60 -5 -69 20 -5 13 -22 16 -80 16 -41 0 -76 -3 -80 -6
-3 -3 -31 -7 -62 -7 -38 -2 -59 -7 -65 -17 -26 -43 -29 -45 -47 -34 -28 16
-48 6 -59 -29 -8 -29 -13 -32 -51 -35 -37 -3 -43 0 -43 17 0 14 -8 21 -27 23
-28 3 -28 4 -45 122 -9 65 -21 123 -27 129 -17 17 -24 -39 -17 -127 5 -67 4
-85 -8 -95 -12 -10 -13 -9 -9 10 4 15 3 20 -5 15 -8 -5 -12 4 -12 27 0 55 -55
89 -97 62 -23 -15 -24 -22 -22 -93 2 -76 2 -77 -23 -80 -25 -3 -27 -1 -33 61
-7 60 -9 65 -34 70 -14 3 -28 3 -30 1 -2 -2 -5 -37 -5 -78 l-1 -74 -59 -5
c-42 -4 -64 -11 -73 -24 -8 -10 -30 -22 -51 -28 -32 -9 -37 -15 -40 -43 -3
-28 -7 -32 -33 -32 -16 0 -32 -6 -35 -14 -4 -10 -16 -12 -45 -9 -29 4 -39 2
-39 -9 0 -10 -17 -14 -75 -14 -73 0 -74 0 -69 23 5 18 -2 31 -31 57 l-37 35
68 75 c37 41 71 73 75 70 4 -2 7 -18 7 -36 -1 -19 6 -36 17 -44 26 -19 28 -18
48 15 l17 29 -36 31 c-42 34 -48 29 55 48 56 10 72 39 18 30 -43 -7 -52 2 -31
31 11 16 22 20 39 16 15 -4 26 0 32 9 17 30 87 48 223 58 204 14 211 15 218
26 4 6 24 16 45 24 34 12 50 29 27 29 -5 0 -10 4 -10 9 0 5 26 15 58 21 31 7
68 18 82 25 14 7 44 17 65 20 l40 8 -27 -22 c-14 -11 -37 -21 -50 -21 -12 -1
-36 -7 -53 -15 -30 -15 -30 -15 20 -11 88 7 199 25 222 37 26 14 21 29 -8 29
-11 0 -17 5 -14 10 3 6 21 10 39 10 38 0 50 8 36 24 -6 8 -2 12 13 11 30 0 34
18 5 27 -22 6 -8 12 20 9 6 -1 12 2 12 7 0 17 -25 32 -56 32 -29 0 -34 4 -46
42 -11 32 -22 47 -46 57 -19 9 -32 22 -32 33 0 10 -4 18 -10 18 -5 0 -10 -10
-10 -21 0 -22 -2 -22 -117 -16 -65 4 -127 8 -138 11 -11 2 -34 5 -51 5 -27 1
-31 4 -31 32 0 17 -5 34 -12 38 -15 10 -210 23 -222 15 -5 -3 -9 -12 -9 -21 0
-8 -9 -26 -20 -40 -13 -16 -20 -41 -20 -67 0 -58 -10 -69 -54 -61 -42 8 -45
11 -48 54 -1 19 -8 31 -17 31 -11 0 -9 6 7 23 12 13 22 33 22 45 0 29 -44 48
-78 33 -12 -6 -25 -11 -27 -11 -2 0 -11 24 -19 53 -9 28 -20 58 -25 66 -7 11
-1 22 21 43 45 42 35 63 -30 63 -28 0 -52 3 -52 7 0 4 -20 32 -45 63 -25 31
-39 55 -32 55 20 0 47 33 47 57 0 32 -55 42 -83 14 l-22 -20 -51 39 c-44 33
-50 42 -48 71 1 17 0 38 -3 46 -7 18 -58 16 -78 -3 -15 -15 -21 -14 -74 10
-32 14 -64 26 -71 26 -8 0 -10 6 -5 18 24 58 12 82 -41 82 -36 0 -59 -26 -48
-55 6 -14 1 -15 -32 -9 -22 3 -44 11 -50 16 -7 5 -18 7 -25 6 -9 -2 -13 5 -11
20 2 15 -2 22 -12 22 -9 0 -16 7 -16 15 0 8 -3 15 -7 15 -14 0 -53 -48 -53
-64 0 -9 -3 -15 -7 -14 -5 1 -28 -1 -53 -5 -34 -6 -54 -3 -79 9 -39 19 -64 10
-69 -24 -5 -36 -31 -47 -111 -48 l-76 -2 0 -30 c0 -26 -9 -36 -63 -72 -38 -26
-69 -40 -79 -36 -9 4 -26 0 -39 -9 -18 -12 -22 -21 -17 -48 4 -27 -1 -41 -29
-77 -34 -45 -34 -45 -90 -42 -53 4 -57 2 -60 -20 -9 -53 37 -89 70 -56 7 7 -2
-20 -20 -60 -31 -71 -33 -72 -69 -72 -35 0 -66 -20 -52 -33 10 -10 -6 -8 -26
3 -24 12 -68 -8 -76 -35 -4 -11 -8 -58 -9 -105 -4 -132 -5 -138 -16 -118 -6 9
-23 19 -38 23 -25 5 -27 9 -24 40 2 19 1 46 -2 60 -6 24 -7 25 -32 9 -26 -17
-28 -39 -3 -39 8 0 14 -6 13 -12 -1 -7 -2 -24 -2 -37 -2 -17 -10 -26 -28 -30
-15 -4 -33 -14 -41 -22 -9 -9 -24 -12 -41 -8 -37 9 -40 14 -18 30 13 9 15 14
6 14 -7 0 -10 3 -7 7 4 3 17 -3 30 -15 l23 -22 2 40 c2 34 -1 42 -20 49 -13 5
-33 5 -45 0 -14 -5 -23 -5 -23 1 0 6 -8 5 -19 -2 -15 -9 -23 -9 -35 1 -9 8
-16 19 -16 25 0 6 -14 17 -30 23 -19 7 -28 7 -24 1 4 -6 -2 -6 -14 1 -29 15
-45 14 -38 -4 6 -18 1 -19 -24 -5 -16 8 -18 7 -15 -9 4 -22 -22 -35 -49 -25
-12 5 -20 -3 -31 -30 -8 -19 -15 -47 -15 -61 0 -27 -31 -48 -38 -27 -2 7 -17
12 -32 12 -19 0 -39 10 -57 30 -18 19 -43 33 -65 36 -31 5 -41 2 -61 -19 -14
-16 -43 -30 -72 -37 -27 -6 -55 -19 -62 -30 -9 -13 -26 -20 -45 -20 -17 0 -39
-6 -47 -14 -15 -13 -16 0 -18 147 -2 152 1 176 28 229 5 10 5 20 -1 23 -6 4
-14 -4 -19 -17 -11 -26 -12 -25 -17 15 -5 49 -29 74 -76 82 -121 20 -148 13
-144 -40 2 -19 0 -32 -5 -30 -4 3 -9 -1 -11 -7 -3 -7 -13 -13 -24 -13 -16 0
-19 -8 -21 -55 -1 -30 -8 -133 -14 -227 l-12 -173 -28 0 c-16 0 -36 9 -46 20
-18 19 -19 19 -51 -11 -25 -23 -31 -36 -27 -56 3 -18 1 -23 -6 -16 -17 17 -8
242 10 252 11 7 10 12 -7 27 -31 26 -51 26 -44 0 4 -17 2 -19 -9 -8 -16 15
-29 16 -29 1 0 -5 5 -7 10 -4 13 8 13 7 -4 -46 -13 -40 -29 -239 -19 -239 7 0
32 27 30 31 -1 3 3 1 8 -4 6 -5 -1 -18 -19 -33 -20 -18 -27 -31 -23 -46 4 -14
3 -18 -4 -11 -10 10 -13 234 -6 355 2 32 -1 49 -10 52 -21 8 -15 25 7 19 15
-4 20 0 20 14 0 15 -6 20 -24 18 -14 -2 -27 3 -30 11 -3 7 -11 12 -18 9 -62
-20 -119 -8 -118 27 1 9 5 7 14 -5 14 -19 56 -16 84 6 20 16 -6 28 -45 21 -30
-6 -33 -4 -33 19 0 16 -7 27 -17 30 -10 2 -2 3 17 2 19 -2 29 -1 22 2 -6 2
-10 8 -8 11 2 4 -11 7 -30 8 -19 0 -34 -3 -34 -8 0 -4 -31 -8 -70 -8 -40 0
-70 -4 -70 -10 0 -18 -4 -25 -24 -42 -18 -14 -22 -14 -29 -2 -4 8 -17 14 -27
14 -13 0 -22 9 -26 25 l-6 25 -31 -33 c-46 -47 -43 -54 22 -49 44 3 61 0 74
-13 9 -9 21 -14 26 -10 5 3 13 0 17 -6 4 -8 3 -9 -4 -5 -7 4 -12 3 -12 -2 0
-6 -7 -13 -16 -16 -8 -3 -12 -2 -9 4 3 6 1 10 -4 10 -6 0 -11 -20 -11 -46 0
-27 4 -43 10 -39 16 10 12 -5 -10 -32 -16 -21 -21 -23 -26 -9 -3 8 -21 18 -39
22 -19 3 -36 12 -39 20 -6 14 22 34 48 34 9 0 16 5 16 10 0 6 -12 10 -27 10
-33 0 -47 9 -56 33 -3 9 -16 17 -28 17 l-22 0 24 27 c13 15 16 22 7 14 -9 -7
-26 -10 -37 -6 -10 3 -22 1 -26 -5 -3 -5 0 -10 7 -10 10 0 10 -2 -1 -9 -16
-10 -38 -5 -61 15 -22 18 -62 14 -55 -6 7 -17 8 -20 6 -37 -1 -9 -20 -13 -61
-13 -54 0 -62 -3 -87 -30 -19 -22 -35 -30 -59 -30 -18 0 -35 -6 -37 -12 -3 -7
-6 1 -6 17 -1 20 6 34 19 43 24 15 28 61 4 58 -8 -1 -20 -9 -24 -17 -7 -10 -9
-8 -8 8 2 14 8 20 18 18 9 -2 23 1 31 6 8 5 10 9 5 9 -5 0 -3 6 3 14 9 10 8
15 -4 20 -11 4 -15 -1 -15 -21 0 -21 -3 -23 -14 -14 -9 8 -16 8 -20 2 -4 -6
-14 -7 -23 -4 -14 5 -13 8 5 14 28 10 28 25 1 32 -15 4 -19 2 -15 -8 2 -7 -1
-19 -9 -25 -17 -14 -28 2 -30 47 0 19 -7 38 -14 42 -10 6 -9 10 4 14 10 5 14
3 9 -5 -4 -7 -3 -8 4 -4 7 4 10 -1 7 -14 -2 -11 1 -23 7 -26 7 -5 8 -2 3 6 -6
10 -3 12 11 7 18 -7 18 -7 0 8 -11 8 -16 15 -11 15 11 0 -13 25 -26 26 -5 1
-13 2 -19 3 -5 0 -6 8 -3 18 4 11 3 14 -5 9 -7 -4 -12 -3 -12 2 0 5 -7 9 -15
9 -10 0 -12 -4 -6 -10 7 -7 7 -16 1 -28 -7 -11 -7 -20 0 -24 5 -3 10 -12 10
-18 0 -8 -4 -7 -9 2 -5 8 -21 15 -35 16 -19 0 -22 -2 -14 -13 8 -9 8 -16 0
-24 -14 -14 -44 -20 -36 -7 3 5 10 6 16 3 7 -5 8 -2 3 6 -5 9 -4 11 3 6 18
-11 14 0 -5 15 -9 8 -14 9 -10 3 4 -7 0 -17 -8 -24 -8 -7 -15 -19 -15 -26 0
-8 -5 -14 -11 -14 -5 0 -7 5 -4 10 3 6 0 10 -7 10 -10 0 -10 2 1 9 9 6 4 8
-17 8 -25 -2 -29 -5 -21 -19 5 -9 14 -20 19 -23 6 -4 8 -11 5 -16 -4 -5 -1 -9
4 -9 6 0 11 -4 11 -9 0 -13 -98 -5 -117 10 -13 11 -15 11 -9 1 8 -14 -17 -12
-64 5 -14 5 -35 8 -48 7 -17 -1 -20 2 -12 11 6 7 9 18 8 25 -2 7 5 14 15 15
13 3 15 0 8 -9 -7 -8 -4 -15 9 -23 14 -10 21 -9 31 3 7 9 21 13 30 11 17 -5
29 11 29 36 0 7 -4 6 -10 -3 -7 -11 -9 -8 -8 15 2 42 -4 57 -29 77 -23 20 -38
24 -28 8 11 -17 -7 -11 -21 8 -8 10 -13 12 -14 5 0 -7 -7 -10 -16 -6 -9 3 -19
1 -23 -6 -4 -7 -17 -13 -27 -13 -11 -1 -20 -9 -20 -19 0 -15 3 -15 20 -3 17
12 22 11 38 -3 10 -9 18 -21 18 -27 0 -6 -5 -4 -10 4 -8 12 -10 12 -10 1 0 -9
-8 -12 -25 -9 -31 6 -37 -10 -16 -42 20 -29 21 -52 4 -58 -15 -4 -17 14 -3 23
17 10 1 24 -22 20 -11 -3 -18 -2 -15 2 4 3 -1 12 -11 20 -9 8 -12 12 -7 10 13
-7 38 20 25 28 -5 3 -7 12 -3 20 3 8 1 15 -4 15 -5 0 -19 9 -31 20 -16 15 -19
25 -13 43 5 12 13 22 19 22 6 0 14 4 19 9 5 5 3 6 -5 2 -9 -6 -12 -1 -9 16 2
12 2 18 0 11 -7 -21 -31 -22 -36 -2 -3 10 -10 19 -17 19 -6 0 -8 -5 -4 -12 4
-7 3 -8 -4 -4 -6 4 -21 2 -32 -4 -16 -9 -18 -8 -14 5 4 8 2 15 -4 15 -5 0 -13
-19 -19 -42 -8 -40 -9 -41 -15 -16 -3 15 -1 25 3 22 5 -3 9 0 9 5 0 6 -8 11
-17 11 -14 0 -15 2 -5 9 11 7 10 9 -3 14 -12 5 -14 11 -6 26 10 18 12 18 42
-10 25 -23 35 -27 50 -19 25 14 24 23 -1 15 -14 -4 -20 -2 -20 8 0 18 -57 40
-65 26 -11 -17 -26 -9 -20 11 4 12 2 20 -5 20 -7 0 -9 8 -5 21 5 13 3 19 -3
15 -5 -3 -12 1 -16 9 -3 8 -1 17 5 21 6 3 6 10 1 17 -5 7 -8 29 -7 49 3 33 0
38 -26 47 -35 12 -36 14 -3 36 15 9 23 11 19 4 -6 -8 -4 -10 4 -5 7 5 9 15 5
25 -4 9 -6 40 -5 69 2 46 0 53 -21 61 -13 5 -27 6 -32 3 -5 -3 -6 0 -2 7 5 7
14 10 21 7 17 -6 33 37 34 96 1 43 -1 47 -31 58 l-33 11 33 14 c31 13 33 17
30 57 -3 33 -8 45 -27 54 -23 12 -23 12 -2 19 22 7 24 15 20 85 -1 25 -2 54
-2 65 1 11 3 92 6 180 3 88 10 181 15 207 5 26 6 45 2 43 -14 -9 -29 79 -21
121 4 22 7 48 5 57 -1 9 2 17 7 17 5 0 5 10 0 23 -4 12 -6 29 -4 37 4 12 3 13
-5 1 -6 -8 -9 -24 -7 -37 1 -13 -2 -24 -6 -24 -13 0 -11 187 2 195 10 7 29 47
35 72 3 16 -20 46 -37 49 -54 12 -105 27 -139 41 l-40 18 -1 65 c-1 36 -1 79
-1 95 2 28 1 29 -12 12 -8 -10 -17 -14 -20 -8 -3 5 -67 10 -144 11 -187 3
-297 12 -295 26 3 18 -39 30 -82 24z m735 -619 c0 -6 -4 -13 -10 -16 -5 -3
-10 1 -10 9 0 9 5 16 10 16 6 0 10 -4 10 -9z m-10 -601 c0 -5 -4 -10 -10 -10
-5 0 -10 5 -10 10 0 6 5 10 10 10 6 0 10 -4 10 -10z m-1420 -520 c0 -5 -5 -10
-11 -10 -5 0 -7 5 -4 10 3 6 8 10 11 10 2 0 4 -4 4 -10z m300 -120 c0 -5 -2
-10 -4 -10 -3 0 -8 5 -11 10 -3 6 -1 10 4 10 6 0 11 -4 11 -10z m-600 -35 c0
-2 -60 1 -68 4 -2 1 -1 5 3 10 5 8 65 -5 65 -14z m6170 15 c0 -5 -15 -9 -32
-9 l-33 1 30 8 c17 4 31 8 33 9 1 0 2 -3 2 -9z m135 0 c17 -7 16 -9 -10 -9
-16 0 -37 4 -45 9 -12 8 -10 10 10 9 14 0 34 -4 45 -9z m-216 -14 c-2 -2 -18
-7 -34 -10 l-30 -6 30 14 c26 12 46 14 34 2z m296 4 c3 -5 -1 -10 -10 -10 -9
0 -13 5 -10 10 3 6 8 10 10 10 2 0 7 -4 10 -10z m-494 -21 c-24 -11 -46 -17
-49 -14 -3 2 6 8 19 13 13 5 31 12 39 15 37 14 31 4 -9 -14z m606 -9 c2 0 3
-4 3 -9 0 -4 -16 -3 -35 3 -44 14 -46 28 -3 15 18 -5 34 -9 35 -9z m-161 -25
c-3 -13 -2 -27 4 -30 6 -4 10 5 10 19 0 14 5 26 10 26 18 0 11 -49 -49 -357
-11 -56 -38 -129 -46 -121 -2 2 2 26 10 54 13 45 48 222 65 322 4 23 4 42 0
42 -6 0 -57 -239 -65 -309 -2 -19 -10 -41 -18 -48 -12 -12 -15 2 -20 99 -8
127 -9 322 -3 329 2 2 28 2 56 0 48 -3 51 -4 46 -26z m-356 15 c-8 -5 -19 -10
-25 -10 -5 0 -3 5 5 10 8 5 20 10 25 10 6 0 3 -5 -5 -10z m218 -2 c16 -16 17
-478 1 -478 -5 0 -7 -4 -4 -10 3 -5 1 -10 -4 -10 -6 0 -11 12 -11 27 0 14 -7
34 -16 44 -9 10 -31 75 -50 146 -19 70 -41 153 -49 183 -21 77 -20 98 8 103
47 9 114 6 125 -5z m347 -9 c-7 -10 -35 -1 -35 11 0 5 9 6 20 3 11 -3 17 -9
15 -14z m-605 -3 c0 -2 -7 -7 -16 -10 -8 -3 -12 -2 -9 4 6 10 25 14 25 6z
m569 -32 c50 -22 53 -26 39 -42 -21 -24 -130 -234 -124 -239 4 -4 46 68 77
132 29 59 54 95 67 95 6 0 12 -2 12 -4 0 -3 -6 -11 -12 -18 -21 -22 -39 -58
-30 -58 4 0 21 18 38 40 16 22 33 40 37 40 13 0 95 -64 102 -79 11 -26 -263
-317 -309 -327 -26 -6 -28 -5 -21 17 7 23 7 23 -8 4 -29 -37 -31 -5 -3 46 30
57 48 99 41 99 -2 0 -23 -34 -46 -76 -25 -46 -45 -72 -51 -66 -7 7 57 382 78
455 7 22 32 18 113 -19z m-493 -3 c1 -16 11 -48 22 -72 27 -57 52 -139 42
-139 -4 0 -10 14 -14 32 -3 17 -9 28 -12 25 -6 -5 28 -129 57 -207 5 -14 8
-34 8 -45 -1 -11 2 -36 6 -55 5 -22 4 -31 -2 -25 -24 26 -62 84 -81 125 -12
25 -30 59 -40 75 -10 17 -43 77 -72 135 -30 58 -56 107 -57 109 -2 3 -8 0 -15
-7 -8 -8 -4 -23 16 -56 14 -24 26 -52 26 -60 0 -9 5 -15 12 -13 7 1 13 -5 13
-13 1 -8 15 -44 32 -80 17 -36 28 -69 23 -74 -4 -4 -27 -5 -49 -1 -46 8 -61
26 -61 75 0 23 -6 33 -25 40 -14 5 -28 16 -31 24 -3 8 -17 17 -32 21 -31 7
-62 33 -62 49 0 20 92 84 181 126 102 48 114 49 115 11z m576 11 c17 -17 -4
-15 -28 2 -17 13 -17 14 -1 12 9 -1 23 -8 29 -14z m-822 -6 c0 -3 -4 -8 -10
-11 -5 -3 -10 -1 -10 4 0 6 5 11 10 11 6 0 10 -2 10 -4z m-5583 -12 c-3 -3
-12 -4 -19 -1 -8 3 -5 6 6 6 11 1 17 -2 13 -5z m5551 -5 c-2 -6 -6 -9 -10 -7
-3 2 -16 -9 -28 -24 -12 -16 -26 -28 -33 -28 -6 0 2 13 18 30 15 16 32 27 37
24 4 -3 8 0 8 5 0 6 3 11 6 11 3 0 4 -5 2 -11z m83 -13 c-7 -8 -26 -21 -44
-30 -18 -9 -43 -24 -57 -32 -15 -10 -12 -4 9 15 19 17 37 29 39 26 2 -2 13 5
25 16 24 22 45 26 28 5z m888 -38 c28 -23 51 -46 51 -50 0 -11 -9 -6 -84 49
-40 30 -52 43 -38 43 10 0 42 -19 71 -42z m-4943 -34 c4 -17 2 -29 -6 -34 -7
-4 -10 -12 -6 -18 3 -6 1 -14 -5 -18 -7 -4 -9 -3 -6 3 4 6 -2 22 -12 34 -18
22 -18 25 -3 41 24 23 31 22 38 -8z m3834 18 c0 -13 -12 -22 -22 -16 -10 6 -1
24 13 24 5 0 9 -4 9 -8z m-18 -82 c-13 -10 -23 -23 -23 -27 0 -4 -2 -10 -4
-11 -2 -2 -3 3 -1 11 3 20 26 47 40 47 6 -1 1 -9 -12 -20z m1262 -51 c25 -34
46 -66 46 -72 0 -7 -6 -3 -12 8 -6 11 -28 41 -50 66 -35 43 -44 59 -34 59 2 0
25 -27 50 -61z m-134 4 c-83 -95 -233 -253 -237 -249 -10 9 107 146 207 242
62 60 79 64 30 7z m-1108 -5 c-7 -7 -12 -8 -12 -2 0 14 12 26 19 19 2 -3 -1
-11 -7 -17z m1207 -26 c17 -27 31 -53 31 -58 0 -15 -106 -84 -140 -90 -17 -4
-44 -19 -60 -35 -17 -18 -43 -31 -68 -35 -23 -3 -43 -13 -46 -20 -3 -8 -10
-14 -16 -14 -14 0 -13 37 3 47 7 4 64 63 126 131 63 67 120 122 127 122 6 0
26 -22 43 -48z m-1279 3 c-7 -9 -15 -13 -19 -10 -3 3 1 10 9 15 21 14 24 12
10 -5z m-113 -37 c-3 -8 -6 -5 -6 6 -1 11 2 17 5 13 3 -3 4 -12 1 -19z m-3657
-23 c0 -15 -6 -25 -14 -25 -22 0 -29 18 -14 34 19 22 28 19 28 -9z m3725 -21
c-9 -15 -25 -49 -35 -78 -12 -33 -19 -43 -19 -28 -1 28 48 132 62 132 5 0 2
-12 -8 -26z m34 -45 c-32 -70 -42 -61 -11 11 15 33 29 55 31 49 2 -6 -7 -33
-20 -60z m-3366 54 c-7 -2 -13 -11 -13 -19 0 -8 -6 -14 -12 -14 -7 0 -2 -7 10
-16 23 -16 29 -34 12 -34 -5 0 -9 4 -7 9 1 5 -6 16 -17 24 -18 13 -18 14 0 35
10 12 23 22 29 21 5 0 4 -3 -2 -6z m9 -35 c-7 -7 -12 -8 -12 -2 0 14 12 26 19
19 2 -3 -1 -11 -7 -17z m4714 -25 c25 -27 32 -53 14 -53 -6 0 -13 7 -16 15 -4
8 -12 15 -19 15 -8 0 -17 5 -21 12 -5 7 -2 9 9 5 11 -4 14 -2 10 9 -7 19 -20
18 -54 -7 -16 -11 -29 -16 -29 -11 0 14 74 61 79 50 1 -5 14 -21 27 -35z
m-4928 20 c-2 -10 -12 -19 -23 -20 -11 -2 -14 0 -7 3 6 3 12 12 12 20 0 8 5
14 11 14 6 0 9 -8 7 -17z m3599 -53 c-9 -48 -19 -61 -32 -40 -5 8 30 90 39 90
2 0 -1 -22 -7 -50z m-5439 23 c-10 -2 -28 -2 -40 0 -13 2 -5 4 17 4 22 1 32
-1 23 -4z m1957 -2 c3 -5 0 -13 -6 -17 -8 -5 -9 -3 -4 6 6 10 4 12 -9 7 -10
-4 -15 -3 -11 3 8 13 22 13 30 1z m-124 -24 c-10 -9 -11 -8 -5 6 3 10 9 15 12
12 3 -3 0 -11 -7 -18z m503 2 c3 -3 -5 -5 -19 -5 -13 0 -22 3 -19 7 4 8 30 6
38 -2z m3606 1 c0 -5 -2 -10 -4 -10 -3 0 -8 5 -11 10 -3 6 -1 10 4 10 6 0 11
-4 11 -10z m-3910 -14 c0 -3 -4 -8 -10 -11 -5 -3 -10 -1 -10 4 0 6 5 11 10 11
6 0 10 -2 10 -4z m3344 -21 c-4 -8 -8 -15 -10 -15 -2 0 -4 7 -4 15 0 8 4 15
10 15 5 0 7 -7 4 -15z m1432 -34 c-16 -30 -36 -42 -36 -21 0 6 7 25 16 42 10
20 19 27 26 20 6 -6 4 -20 -6 -41z m-4486 24 c0 -16 -17 -19 -44 -9 -22 9 -10
24 20 24 15 0 24 -6 24 -15z m3636 -5 c8 0 14 -4 14 -10 0 -13 -6 -13 -31 1
-11 5 -16 15 -12 22 5 8 8 8 11 -1 2 -7 10 -12 18 -12z m-3503 -26 c3 -3 3
-12 0 -20 -4 -11 -9 -12 -19 -3 -8 6 -14 15 -14 20 0 10 24 12 33 3z m797 -15
c0 -6 -4 -7 -10 -4 -5 3 -10 11 -10 16 0 6 5 7 10 4 6 -3 10 -11 10 -16z
m2910 1 c0 -11 -4 -20 -9 -20 -5 0 -7 9 -4 20 3 11 7 20 9 20 2 0 4 -9 4 -20z
m-168 -45 c4 -5 5 -11 2 -14 -6 -6 -64 50 -64 63 0 9 46 -27 62 -49z m-2845
27 c-10 -2 -14 -9 -11 -15 5 -9 4 -9 -6 0 -17 15 -4 34 18 25 16 -6 16 -7 -1
-10z m2963 14 c0 -3 -4 -8 -10 -11 -5 -3 -10 -1 -10 4 0 6 5 11 10 11 6 0 10
-2 10 -4z m-3016 -49 c-5 -15 22 -17 44 -3 6 4 12 3 12 -3 0 -6 14 -9 30 -7
22 2 35 -2 44 -16 10 -14 15 -16 20 -6 5 13 -2 -36 -10 -59 -7 -24 -24 -13
-24 15 0 21 2 24 10 12 8 -13 10 -13 10 1 0 9 -7 22 -15 29 -12 10 -15 10 -15
-1 0 -8 -6 -5 -15 7 -9 12 -14 14 -15 6 0 -7 -4 -10 -10 -7 -5 3 -10 0 -10 -7
0 -10 -2 -10 -9 1 -5 7 -19 14 -32 15 -23 1 -42 36 -20 36 6 0 8 -6 5 -13z
m-19 -43 c9 -9 14 -18 11 -21 -7 -7 -46 16 -46 27 0 15 17 12 35 -6z m2875 6
c0 -5 -2 -10 -4 -10 -3 0 -8 5 -11 10 -3 6 -1 10 4 10 6 0 11 -4 11 -10z m863
-49 c-9 -13 -21 18 -16 39 7 25 7 25 13 -5 4 -16 5 -32 3 -34z m-34 18 c-5
-10 -15 -21 -22 -25 -8 -6 -8 -3 1 9 8 9 11 20 8 25 -3 5 1 9 9 9 10 0 11 -5
4 -18z m894 6 c22 -2 40 -5 42 -7 1 -2 0 -18 -2 -35 -6 -37 -19 -42 -40 -15
-8 9 -12 12 -9 6 3 -6 -11 -3 -32 6 -20 10 -65 20 -99 23 l-63 5 -17 -36 c-17
-35 -17 -36 -24 -12 -4 14 -7 38 -8 54 l-1 29 108 -7 c59 -4 124 -9 145 -11z
m-4523 -26 c0 -11 -4 -18 -9 -14 -6 3 -9 14 -8 25 2 24 17 15 17 -11z m-30
-17 c-4 -2 -5 -13 -2 -25 3 -12 2 -19 -2 -16 -8 8 -15 67 -7 74 3 3 8 -2 12
-12 3 -10 3 -19 -1 -21z m3245 19 c-3 -6 -11 -11 -17 -11 -6 0 -6 6 2 15 14
17 26 13 15 -4z m1445 -22 c0 -13 -24 -11 -38 3 -7 7 -12 18 -12 25 0 10 6 10
25 -3 14 -9 25 -20 25 -25z m-4723 25 c-3 -3 -12 -4 -19 -1 -8 3 -5 6 6 6 11
1 17 -2 13 -5z m2693 -8 c0 -3 -4 -8 -10 -11 -5 -3 -10 -1 -10 4 0 6 5 11 10
11 6 0 10 -2 10 -4z m960 -8 c0 -4 -9 -8 -20 -8 -11 0 -20 4 -20 9 0 6 9 9 20
8 11 -1 20 -5 20 -9z m-1860 -13 c0 -8 -4 -15 -10 -15 -5 0 -10 7 -10 15 0 8
5 15 10 15 6 0 10 -7 10 -15z m-1780 -25 c0 -4 -7 -10 -15 -14 -15 -5 -21 -36
-7 -36 8 0 9 -39 1 -56 -2 -5 -4 -24 -4 -41 0 -18 -3 -33 -7 -33 -4 0 -8 21
-8 48 0 26 -3 70 -6 98 -6 52 -6 52 20 47 14 -3 26 -9 26 -13z m-3010 0 c0 -5
-4 -10 -10 -10 -5 0 -10 5 -10 10 0 6 5 10 10 10 6 0 10 -4 10 -10z m6367 4
c-3 -3 -12 -4 -19 -1 -8 3 -5 6 6 6 11 1 17 -2 13 -5z m997 -75 c-9 -15 -34
-10 -41 7 -9 23 19 38 34 17 7 -9 10 -20 7 -24z m-2444 1 c17 -23 38 -26 46
-6 3 8 12 12 20 9 8 -3 11 -10 7 -16 -4 -6 -7 -46 -7 -88 -1 -43 -4 -81 -8
-85 -5 -4 -8 0 -8 9 0 10 -3 17 -7 17 -10 0 -8 75 3 91 5 9 2 10 -9 6 -11 -4
-20 0 -26 12 -11 20 -53 18 -80 -3 -12 -9 -13 -7 -9 10 4 14 -1 25 -16 34 -21
14 -21 14 4 21 46 13 75 9 90 -11z m1613 -17 c-7 -2 -19 -2 -25 0 -7 3 -2 5
12 5 14 0 19 -2 13 -5z m54 1 c-3 -3 -12 -4 -19 -1 -8 3 -5 6 6 6 11 1 17 -2
13 -5z m1083 -33 c0 -10 -47 -8 -57 3 -4 5 2 6 15 3 12 -3 22 -1 22 5 0 5 5 6
10 3 6 -3 10 -10 10 -14z m-2779 -24 c-10 -9 -11 -8 -5 6 3 10 9 15 12 12 3
-3 0 -11 -7 -18z m-951 -7 c0 -11 -4 -20 -8 -20 -4 0 -8 9 -8 20 0 11 4 20 8
20 4 0 8 -9 8 -20z m3005 0 c3 -5 1 -10 -4 -10 -6 0 -11 5 -11 10 0 6 2 10 4
10 3 0 8 -4 11 -10z m-2087 -37 c-13 -16 -15 -16 -21 1 -4 10 0 14 13 13 14
-1 16 -4 8 -14z m60 -4 c-11 -7 -10 -11 2 -19 13 -8 13 -10 -2 -10 -13 0 -17
7 -16 24 2 16 7 22 16 18 11 -4 11 -6 0 -13z m-28 -9 c0 -5 -4 -10 -10 -10 -5
0 -10 5 -10 10 0 6 5 10 10 10 6 0 10 -4 10 -10z m-1480 -60 c0 -5 -4 -10 -10
-10 -5 0 -10 5 -10 10 0 6 5 10 10 10 6 0 10 -4 10 -10z m535 0 c3 -5 1 -10
-4 -10 -6 0 -11 5 -11 10 0 6 2 10 4 10 3 0 8 -4 11 -10z m-3949 -47 c-6 -6
-36 9 -36 18 0 5 9 4 20 -3 10 -7 18 -14 16 -15z m6774 -57 c0 -3 -4 -8 -10
-11 -5 -3 -10 -1 -10 4 0 6 5 11 10 11 6 0 10 -2 10 -4z m-337 -173 l27 -29
-22 -21 c-57 -51 -108 -69 -108 -38 0 8 -13 37 -30 65 -16 28 -30 53 -30 55 0
7 105 10 120 3 8 -3 27 -19 43 -35z m122 7 c-21 -22 -44 -40 -49 -40 -6 0 8
18 29 40 21 22 44 40 49 40 6 0 -8 -18 -29 -40z m63 13 c-31 -37 -138 -137
-138 -130 0 6 152 157 158 157 2 0 -7 -12 -20 -27z m-374 3 c-3 -7 13 -44 35
-80 l41 -66 -26 -11 c-15 -5 -28 -8 -29 -7 -11 17 -95 160 -95 163 0 2 15 6
33 8 17 2 35 5 39 5 4 1 5 -4 2 -12z m263 -13 l-27 -28 -27 28 -28 27 55 0 55
0 -28 -27z m-707 -38 c0 -18 -63 -125 -73 -125 -7 0 -23 7 -35 16 -21 14 -22
18 -9 33 9 9 17 27 19 41 2 16 12 27 28 31 31 9 70 11 70 4z m660 -45 c-36
-31 -91 -63 -97 -57 -1 2 19 18 47 36 27 18 52 36 55 42 4 5 12 9 18 9 7 0 -4
-14 -23 -30z m95 -79 c3 -46 1 -51 -24 -59 -16 -6 -36 -5 -51 1 -79 30 -79 23
-4 72 38 24 70 42 73 40 2 -2 5 -27 6 -54z m-85 41 c0 -5 -19 -19 -42 -32 -49
-26 -48 -22 2 14 41 29 40 28 40 18z m-483 -42 c-1 -38 -17 -59 -17 -22 0 14
-2 15 -9 2 -6 -8 -7 -18 -5 -22 3 -4 -11 -8 -30 -8 -41 0 -42 1 -19 52 14 33
21 38 49 38 31 0 32 -1 31 -40z m131 10 c9 -26 8 -32 -11 -45 -12 -8 -39 -15
-60 -15 -35 0 -39 2 -34 21 3 12 2 32 -3 45 -9 23 -8 24 44 24 51 0 55 -2 64
-30z m204 -10 c-22 -21 -42 -26 -42 -12 0 5 12 13 28 19 38 15 38 15 14 -7z
m-632 -26 c0 -2 -9 0 -20 6 -11 6 -20 13 -20 16 0 2 9 0 20 -6 11 -6 20 -13
20 -16z m25 -4 c3 -5 1 -10 -4 -10 -6 0 -11 5 -11 10 0 6 2 10 4 10 3 0 8 -4
11 -10z m-20 -41 c5 -6 3 -9 -6 -9 -8 0 -21 6 -28 13 -11 10 -13 9 -8 -6 4
-11 3 -16 -3 -12 -6 3 -10 13 -10 21 0 11 6 14 23 9 12 -4 26 -11 32 -16z"/>
<path d="M6995 2349 c-4 -6 -5 -12 -2 -15 2 -3 7 2 10 11 7 17 1 20 -8 4z"/>
<path d="M6955 2275 c-15 -25 -25 -48 -22 -51 2 -3 17 16 31 42 34 61 26 70
-9 9z"/>
<path d="M6898 2163 c-13 -21 -28 -47 -32 -58 l-7 -20 20 20 c17 17 55 95 47
95 -2 0 -14 -17 -28 -37z"/>
<path d="M8097 4403 c-26 -8 -45 -18 -42 -23 3 -5 16 -6 28 -1 32 11 105 7
119 -7 15 -15 42 -16 33 -2 -6 9 -80 51 -87 49 -2 -1 -24 -8 -51 -16z"/>
<path d="M5105 4239 c-4 -6 -4 -13 -1 -16 3 -4 6 -1 6 5 0 6 6 9 14 6 8 -3 17
-1 21 5 3 7 -2 11 -14 11 -11 0 -23 -5 -26 -11z"/>
<path d="M5795 4180 c-3 -5 -1 -10 4 -10 6 0 11 5 11 10 0 6 -2 10 -4 10 -3 0
-8 -4 -11 -10z"/>
<path d="M5754 4172 c3 -5 0 -13 -6 -15 -9 -4 -10 -6 -1 -6 17 -1 25 16 12 25
-7 4 -9 3 -5 -4z"/>
<path d="M5769 4143 c-13 -16 -12 -17 4 -4 16 13 21 21 13 21 -2 0 -10 -8 -17
-17z"/>
<path d="M5813 4145 c0 -7 7 -11 15 -7 10 3 13 1 8 -6 -3 -6 -2 -14 4 -17 6
-4 9 -1 8 7 -2 7 4 12 12 10 8 -2 13 -1 10 1 -3 3 -9 6 -15 7 -5 1 -17 6 -26
10 -11 6 -16 5 -16 -5z"/>
<path d="M0 4140 c0 -13 40 -13 60 0 11 7 5 10 -22 10 -21 0 -38 -4 -38 -10z"/>
<path d="M8350 4034 c-18 -11 -44 -14 -95 -10 -60 5 -73 3 -95 -14 l-25 -21
46 7 c27 3 55 1 66 -5 26 -14 79 1 118 34 33 27 25 32 -15 9z"/>
<path d="M3510 4006 c0 -5 22 -35 50 -67 51 -59 56 -82 21 -103 -13 -8 -12
-10 4 -17 34 -13 45 -10 55 16 5 14 15 24 22 23 7 -2 12 2 11 9 -2 6 9 21 22
31 15 12 25 30 24 43 l0 24 -9 -23 c-9 -22 -11 -22 -47 -7 -20 9 -42 14 -49
11 -12 -4 -83 38 -96 58 -4 6 -8 7 -8 2z"/>
<path d="M6240 4001 c0 -10 30 -24 37 -17 3 3 2 9 -2 15 -8 13 -35 15 -35 2z"/>
<path d="M6304 3999 c-3 -6 0 -17 8 -25 12 -12 26 -13 64 -6 l49 8 -32 17
c-36 19 -79 22 -89 6z"/>
<path d="M3865 3940 c3 -5 11 -10 16 -10 6 0 7 5 4 10 -3 6 -11 10 -16 10 -6
0 -7 -4 -4 -10z"/>
<path d="M3750 3892 c0 -10 5 -10 23 -1 31 16 31 17 3 15 -14 0 -26 -7 -26
-14z"/>
<path d="M6196 3865 c4 -8 10 -15 15 -15 5 0 9 7 9 15 0 8 -7 15 -15 15 -9 0
-12 -6 -9 -15z"/>
<path d="M5741 3811 c-7 -5 -12 -11 -12 -15 3 -24 -1 -36 -14 -36 -18 0 -20
-16 -3 -26 7 -5 8 -3 3 7 -5 8 11 -5 36 -28 24 -24 47 -43 51 -43 3 0 12 -16
18 -35 6 -19 15 -35 20 -35 11 0 7 33 -4 42 -5 3 -11 16 -13 27 -2 17 2 15 30
-12 17 -18 31 -31 29 -28 -1 2 6 13 15 24 10 11 12 17 6 13 -19 -10 -16 2 7
34 11 15 17 29 15 32 -2 2 7 4 20 4 14 0 25 -4 25 -8 0 -5 9 -3 20 4 25 16 26
32 2 19 -21 -11 -43 3 -36 24 5 12 -21 17 -46 8 -8 -4 -28 -8 -45 -10 -16 -3
-37 -9 -46 -14 -28 -15 -37 -11 -44 21 -8 34 -16 42 -34 31z m149 -156 c0 -12
-19 -12 -23 0 -4 9 -1 12 9 8 7 -3 14 -7 14 -8z"/>
<path d="M5620 3771 c0 -11 59 -26 67 -17 9 9 2 12 -34 19 -18 4 -33 2 -33 -2z"/>
<path d="M5666 3713 c-12 -12 -5 -23 14 -23 11 0 20 4 20 9 0 11 -26 22 -34
14z"/>
<path d="M5717 3706 c-3 -8 2 -16 14 -19 16 -4 17 -2 8 14 -12 23 -15 23 -22
5z"/>
<path d="M3992 3625 c-23 -10 -25 -26 -4 -33 7 -2 12 5 12 15 1 17 2 17 16 -2
8 -11 20 -19 26 -17 6 2 8 -4 4 -13 -3 -9 -2 -14 3 -10 5 3 12 -1 15 -7 3 -7
3 -2 0 11 -5 18 -3 22 7 15 12 -6 12 -5 0 9 -9 12 -10 17 -2 17 7 0 9 5 5 11
-4 8 -9 7 -15 -2 -4 -7 -5 -17 -3 -21 3 -4 -2 -5 -11 -1 -9 3 -20 13 -23 22
-6 13 -12 14 -30 6z"/>
<path d="M4033 3625 c0 -8 4 -15 9 -15 4 0 8 4 8 9 0 6 -4 12 -8 15 -5 3 -9
-1 -9 -9z"/>
<path d="M3980 3563 c-13 -15 -13 -16 1 -11 9 3 22 2 29 -2 10 -6 4 -14 -21
-29 -19 -11 -40 -25 -46 -31 -15 -13 -17 -34 -3 -25 6 3 10 1 10 -4 0 -19 29
-12 40 9 8 16 19 20 44 17 36 -4 43 12 16 36 -12 10 -12 9 -1 -5 11 -14 10
-17 -7 -15 -16 1 -19 8 -18 36 1 40 -19 51 -44 24z"/>
<path d="M4270 3570 c-8 -5 -12 -12 -9 -15 4 -3 12 1 19 10 14 17 11 19 -10 5z"/>
<path d="M8987 3549 c4 -13 8 -18 11 -10 2 7 -1 18 -6 23 -8 8 -9 4 -5 -13z"/>
<path d="M4195 3540 c-3 -5 -1 -10 4 -10 6 0 11 5 11 10 0 6 -2 10 -4 10 -3 0
-8 -4 -11 -10z"/>
<path d="M4239 3503 c-12 -15 -12 -16 1 -8 12 6 13 5 3 -5 -10 -11 -15 -11
-30 1 -10 7 -15 9 -10 4 4 -4 0 -17 -10 -27 -9 -10 -13 -18 -8 -18 4 0 14 8
21 18 9 12 13 13 14 4 0 -16 -35 -64 -42 -57 -2 2 -2 -11 0 -30 3 -26 9 -35
22 -35 13 0 17 -5 13 -20 -3 -11 0 -20 5 -20 6 0 15 17 21 38 10 42 24 172 18
172 -3 0 -11 -8 -18 -17z"/>
<path d="M9006 3507 c3 -10 9 -15 12 -12 3 3 0 11 -7 18 -10 9 -11 8 -5 -6z"/>
<path d="M4013 3446 c-30 -26 -27 -42 6 -31 13 4 18 11 14 22 -4 10 -2 14 4
10 5 -3 10 0 10 8 0 19 -1 19 -34 -9z"/>
<path d="M9033 3446 c6 -16 5 -17 -8 -6 -24 20 -20 -23 5 -45 20 -18 28 -51
10 -40 -15 9 -12 -11 4 -24 11 -10 14 -1 14 49 0 42 -5 63 -16 72 -13 11 -15
10 -9 -6z"/>
<path d="M4010 3389 c0 -5 -4 -7 -10 -4 -9 5 -15 -16 -11 -38 1 -5 -3 -6 -8
-3 -5 4 -12 2 -16 -4 -3 -5 1 -10 10 -10 9 0 14 -4 10 -10 -3 -5 -12 -7 -19
-4 -8 3 -22 -9 -35 -29 -24 -39 -28 -62 -6 -33 8 11 15 14 15 7 0 -7 5 -9 11
-5 8 4 7 9 -2 15 -11 7 -11 12 4 26 17 17 18 17 11 1 -3 -10 -4 -18 -1 -18 8
0 38 51 42 72 2 11 9 26 16 34 8 10 8 14 0 14 -6 0 -11 -5 -11 -11z"/>
<path d="M5201 3272 c-14 -27 -12 -35 8 -23 7 5 11 17 9 27 -4 17 -5 17 -17
-4z"/>
<path d="M9008 3283 c12 -2 30 -2 40 0 9 3 -1 5 -23 4 -22 0 -30 -2 -17 -4z"/>
<path d="M6466 3182 c-3 -5 1 -9 9 -9 8 0 12 4 9 9 -3 4 -7 8 -9 8 -2 0 -6 -4
-9 -8z"/>
<path d="M6584 3167 c11 -8 16 -19 12 -26 -10 -15 13 -43 27 -34 5 3 7 1 4 -4
-11 -18 29 -44 74 -47 51 -4 72 2 62 18 -5 8 -3 8 8 -1 8 -6 34 -16 59 -23 25
-7 48 -17 52 -24 6 -8 8 -8 9 2 1 6 2 17 3 24 0 6 7 13 15 16 8 3 11 0 8 -5
-3 -5 -1 -10 6 -10 7 0 21 -4 32 -9 17 -7 18 -6 5 8 -8 9 -17 15 -20 13 -3 -2
-10 3 -17 10 -9 9 -5 12 18 11 17 -1 27 -6 25 -12 -3 -8 6 -9 32 -2 20 5 42
10 49 10 21 2 23 27 3 38 -15 8 -21 6 -29 -7 -10 -17 -10 -17 -11 0 0 11 -5
17 -12 14 -7 -2 -12 -11 -10 -18 1 -8 -7 -3 -19 11 -16 19 -19 21 -15 6 6 -16
4 -17 -10 -5 -19 15 -54 20 -54 6 0 -5 -6 -4 -13 2 -8 6 -17 8 -20 4 -4 -3
-13 0 -21 6 -10 8 -16 9 -21 1 -3 -5 -11 -10 -16 -10 -6 0 -8 4 -5 8 2 4 -6 8
-20 8 -13 0 -24 -4 -24 -10 0 -5 -7 -1 -16 10 -8 10 -13 13 -9 7 7 -15 -11
-18 -20 -3 -4 6 -11 8 -16 4 -6 -4 -6 -10 1 -19 8 -9 4 -12 -16 -9 -33 3 -50
19 -33 29 8 5 10 4 5 -3 -5 -8 -2 -10 8 -6 24 9 19 22 -6 20 -13 -1 -27 0 -33
3 -5 3 -19 7 -30 9 -19 2 -19 2 -1 -11z m32 -22 c-3 -8 -1 -16 5 -19 5 -2 4
-3 -2 -2 -7 1 -13 12 -14 24 -1 11 2 19 7 16 5 -4 7 -12 4 -19z m45 -58 c-10
-9 -11 -8 -5 6 3 10 9 15 12 12 3 -3 0 -11 -7 -18z"/>
<path d="M6340 3159 c0 -5 7 -9 15 -9 17 0 20 -16 6 -25 -6 -3 -15 4 -21 15
-12 23 -35 17 -26 -7 9 -22 -14 -49 -25 -31 -7 10 -9 10 -9 1 0 -7 -1 -16 -2
-20 -2 -3 5 -7 15 -9 9 -1 17 4 17 11 0 7 7 15 15 19 9 3 15 0 15 -10 0 -8 5
-12 10 -9 6 4 7 12 4 18 -4 7 -3 8 2 4 5 -5 9 -13 9 -19 0 -12 27 -20 67 -19
15 1 29 -3 33 -9 4 -6 16 -3 32 7 23 15 24 18 8 29 -16 12 -16 13 3 11 11 0
18 -5 16 -9 -3 -4 0 -8 7 -8 6 0 9 8 6 20 -3 11 -1 18 4 14 5 -3 9 -13 9 -22
0 -15 2 -15 10 -2 7 11 10 11 10 2 0 -7 5 -10 10 -7 6 3 10 1 10 -4 0 -6 8
-11 18 -11 13 1 11 6 -12 24 -20 17 -25 26 -16 31 16 10 -14 29 -47 31 -19 1
-21 -1 -10 -14 11 -13 9 -14 -13 -2 l-25 13 20 -23 20 -23 -22 12 c-16 8 -24
8 -29 -1 -5 -7 -3 -8 7 -3 12 8 12 6 0 -8 -11 -14 -11 -18 4 -23 16 -7 16 -8
0 -17 -12 -6 -20 -6 -25 3 -4 6 -11 11 -16 10 -5 -1 -10 3 -12 9 -3 9 8 14 28
13 3 0 6 10 6 23 2 22 1 22 -17 4 -11 -11 -24 -17 -29 -14 -13 8 -13 -1 -1
-24 7 -13 6 -18 -4 -18 -8 0 -12 5 -8 10 3 5 -3 4 -14 -1 -17 -9 -19 -8 -18
10 1 12 8 24 16 26 16 6 29 22 29 37 0 6 -5 3 -10 -5 -7 -12 -15 -13 -40 -3
-16 6 -30 7 -30 2z m217 -14 c0 -8 -4 -12 -9 -9 -5 3 -6 10 -3 15 9 13 12 11
12 -6z"/>
<path d="M6429 3143 c-13 -16 -12 -17 4 -4 9 7 17 15 17 17 0 8 -8 3 -21 -13z"/>
<path d="M6114 3140 c-16 -6 -16 -7 -1 -13 10 -4 17 -1 17 6 1 7 7 -3 16 -22
10 -25 18 -31 25 -24 13 13 2 36 -12 28 -5 -4 -9 1 -9 10 0 12 4 14 19 6 10
-6 21 -7 25 -4 9 9 8 -2 -3 -30 -7 -17 -6 -24 4 -24 7 0 11 9 8 21 -4 18 -2
17 10 -4 9 -14 13 -29 10 -34 -4 -5 -1 -6 5 -2 6 4 9 13 5 21 -3 8 0 15 6 15
6 0 11 -6 11 -12 1 -7 8 0 16 15 8 15 19 25 24 22 6 -4 10 3 10 14 0 21 -12
22 -62 2 -20 -7 -28 -7 -28 0 0 6 -7 9 -15 5 -8 -3 -15 -2 -15 2 0 10 -41 10
-66 2z m160 -15 c-4 -8 -10 -15 -16 -15 -5 0 -6 -6 -2 -12 6 -10 4 -10 -8 0
-11 9 -18 9 -21 2 -3 -6 -4 -5 -3 2 2 7 8 13 14 13 6 0 17 6 24 13 16 16 19
15 12 -3z"/>
<path d="M6385 3110 c3 -5 8 -10 11 -10 2 0 4 5 4 10 0 6 -5 10 -11 10 -5 0
-7 -4 -4 -10z"/>
<path d="M7087 3109 c-24 -14 -21 -32 4 -24 16 5 19 4 14 -5 -5 -8 -4 -11 3
-6 6 3 21 2 35 -3 17 -7 28 -6 37 2 10 9 11 9 6 0 -4 -7 -2 -13 3 -13 18 0 12
20 -6 26 -10 3 -26 10 -37 15 -13 7 -16 7 -11 0 3 -6 -1 -11 -10 -11 -9 0 -14
4 -10 9 8 15 -8 20 -28 10z"/>
<path d="M6444 3098 c-4 -7 -4 -10 1 -6 4 4 15 2 24 -5 14 -11 14 -10 2 6 -16
20 -18 21 -27 5z"/>
<path d="M7342 3075 c4 -4 3 -16 -3 -26 -8 -16 -6 -19 13 -19 13 0 35 8 48 17
14 10 27 16 28 14 2 -1 5 -1 8 1 2 3 -13 4 -34 3 -24 -1 -36 -6 -34 -14 1 -7
-2 -10 -8 -6 -6 3 -8 10 -5 15 3 5 0 12 -7 16 -7 4 -10 4 -6 -1z"/>
<path d="M6986 3051 c-3 -5 2 -15 12 -22 15 -13 16 -12 4 3 -10 13 -10 17 0
21 9 4 9 6 1 6 -6 1 -14 -3 -17 -8z"/>
<path d="M5581 3004 c0 -11 3 -14 6 -6 3 7 2 16 -1 19 -3 4 -6 -2 -5 -13z"/>
<path d="M0 2960 c0 -5 4 -10 9 -10 6 0 13 5 16 10 3 6 -1 10 -9 10 -9 0 -16
-4 -16 -10z"/>
<path d="M290 2955 c5 -6 7 -15 3 -18 -3 -4 -2 -7 4 -7 6 0 14 7 17 16 3 9 11
12 18 8 7 -4 9 -3 5 2 -4 4 -19 9 -32 10 -18 1 -22 -2 -15 -11z"/>
<path d="M380 2939 c0 -5 5 -7 10 -4 6 3 10 8 10 11 0 2 -4 4 -10 4 -5 0 -10
-5 -10 -11z"/>
<path d="M236 2889 c-20 -24 -29 -59 -15 -59 6 0 8 -4 5 -9 -9 -14 20 -21 33
-8 13 13 15 28 4 26 -21 -3 -21 3 -3 21 11 11 17 26 14 35 -8 20 -16 19 -38
-6z"/>
<path d="M435 2900 c-3 -5 -2 -10 4 -10 5 0 13 5 16 10 3 6 2 10 -4 10 -5 0
-13 -4 -16 -10z"/>
<path d="M308 2888 c5 -5 16 -8 23 -6 8 3 3 7 -10 11 -17 4 -21 3 -13 -5z"/>
<path d="M461 2824 c0 -11 3 -14 6 -6 3 7 2 16 -1 19 -3 4 -6 -2 -5 -13z"/>
<path d="M305 2819 c-3 -4 2 -6 10 -5 21 3 28 13 10 13 -9 0 -18 -4 -20 -8z"/>
<path d="M365 2822 c-5 -4 -11 -17 -13 -29 -2 -17 2 -23 15 -23 14 0 15 2 4 9
-11 7 -10 11 5 20 11 6 13 11 6 11 -7 0 -10 5 -7 10 7 12 4 13 -10 2z"/>
<path d="M4383 2818 c-8 -14 -12 -54 -14 -125 -1 -41 -2 -43 -32 -43 l-32 1
24 19 c13 11 18 20 13 20 -6 0 -14 -5 -18 -11 -11 -18 -76 -41 -86 -31 -6 6 2
14 19 21 15 7 42 24 58 38 21 18 23 21 5 9 -32 -21 -91 -55 -144 -83 -48 -25
-34 -27 69 -9 74 13 122 7 117 -14 -3 -13 26 -50 40 -50 4 0 8 16 8 35 0 33 2
35 38 37 20 1 46 3 57 4 11 1 33 2 49 3 l29 1 -39 26 c-38 25 -134 117 -134
128 0 10 35 -7 43 -21 4 -7 13 -13 19 -13 7 0 -5 16 -26 35 -42 38 -51 41 -63
23z m76 -111 c49 -53 48 -77 0 -31 -31 29 -69 90 -52 83 5 -2 28 -25 52 -52z
m-29 -40 c0 -5 -4 -5 -10 -2 -5 3 -10 14 -10 23 0 15 2 15 10 2 5 -8 10 -19
10 -23z"/>
<path d="M220 2783 c0 -9 5 -11 13 -7 8 5 7 2 -2 -9 -8 -10 -11 -20 -7 -24 3
-3 6 -1 6 6 0 7 4 10 9 7 5 -3 11 3 14 13 3 13 -1 21 -14 24 -12 3 -19 0 -19
-10z"/>
<path d="M415 2760 c-3 -5 -1 -10 4 -10 6 0 11 5 11 10 0 6 -2 10 -4 10 -3 0
-8 -4 -11 -10z"/>
<path d="M3149 2743 c-13 -16 -12 -17 4 -4 16 13 21 21 13 21 -2 0 -10 -8 -17
-17z"/>
<path d="M2519 2733 c-13 -16 -12 -17 4 -4 16 13 21 21 13 21 -2 0 -10 -8 -17
-17z"/>
<path d="M2549 2733 c-12 -16 -12 -17 2 -6 9 7 20 9 24 5 5 -4 5 -1 1 6 -9 16
-11 15 -27 -5z"/>
<path d="M3506 2742 c-2 -4 -1 -13 3 -20 4 -8 11 -5 19 8 10 16 10 20 -2 20
-8 0 -17 -4 -20 -8z"/>
<path d="M3670 2745 c0 -15 31 -35 54 -35 20 0 24 -4 21 -21 -3 -12 -1 -19 2
-15 14 14 10 37 -8 46 -10 6 -19 8 -19 4 0 -3 -11 1 -25 10 -14 9 -25 14 -25
11z"/>
<path d="M5950 2740 c0 -5 7 -10 15 -10 8 0 15 -4 15 -10 0 -5 -7 -10 -15 -10
-8 0 -15 -4 -15 -10 0 -11 11 -13 34 -4 20 8 20 21 2 40 -17 16 -36 19 -36 4z"/>
<path d="M7639 2726 c-25 -18 -12 -32 27 -28 19 2 33 9 31 15 -5 17 -42 26
-58 13z"/>
<path d="M3465 2721 c-3 -5 0 -13 6 -17 8 -4 7 -9 -2 -15 -10 -6 -10 -9 -2 -9
6 0 15 5 18 10 4 6 12 7 18 4 7 -4 8 -3 4 2 -5 5 -14 9 -20 9 -7 1 -11 6 -9
13 2 14 -4 16 -13 3z"/>
<path d="M1116 2713 c-4 -5 -16 -8 -27 -8 -10 0 -19 -3 -19 -7 0 -5 0 -12 0
-18 0 -5 3 -9 8 -9 19 3 33 -2 28 -10 -3 -5 1 -11 9 -15 8 -3 17 -1 20 3 3 5
-2 12 -11 15 -9 4 -12 11 -7 18 7 13 14 38 9 38 -2 0 -6 -3 -10 -7z m-2 -25
c-3 -4 -9 -8 -15 -8 -5 0 -9 4 -9 8 0 5 7 9 15 9 8 0 12 -4 9 -9z"/>
<path d="M451 2697 c-8 -10 -7 -14 4 -14 8 0 15 6 15 14 0 7 -2 13 -4 13 -2 0
-9 -6 -15 -13z"/>
<path d="M3353 2695 c0 -8 4 -12 9 -9 5 3 6 10 3 15 -9 13 -12 11 -12 -6z"/>
<path d="M3781 2697 c2 -1 13 -9 24 -17 19 -14 19 -14 6 3 -7 9 -18 17 -24 17
-6 0 -8 -1 -6 -3z"/>
<path d="M3426 2678 c3 -5 10 -6 15 -3 13 9 11 12 -6 12 -8 0 -12 -4 -9 -9z"/>
<path d="M8840 2680 c0 -5 25 -10 56 -10 34 0 53 4 49 10 -3 6 -28 10 -56 10
-27 0 -49 -4 -49 -10z"/>
<path d="M3507 2674 c-4 -4 -7 -12 -7 -18 0 -6 5 -4 10 4 9 13 11 13 21 0 9
-12 10 -12 7 -1 -5 17 -21 25 -31 15z"/>
<path d="M3770 2665 c0 -8 5 -15 11 -15 5 0 7 -4 4 -10 -9 -15 1 -12 14 4 10
12 8 17 -8 26 -17 9 -21 8 -21 -5z"/>
<path d="M3830 2671 c0 -5 5 -13 10 -16 6 -3 10 -2 10 4 0 5 -4 13 -10 16 -5
3 -10 2 -10 -4z"/>
<path d="M4080 2655 c0 -8 -3 -14 -7 -14 -18 3 -34 -2 -30 -8 3 -5 -18 -7 -46
-6 -29 0 -58 -3 -64 -9 -16 -13 -47 -2 -37 13 5 8 3 9 -5 4 -10 -6 -10 -10 1
-21 21 -21 228 -8 228 15 0 12 -3 12 -12 3 -7 -7 -16 -12 -20 -12 -13 0 -9 17
8 34 14 15 14 16 0 16 -9 0 -16 -7 -16 -15z"/>
<path d="M8195 2653 c-11 -3 -24 -9 -30 -15 -8 -8 43 -7 103 2 2 0 0 5 -3 10
-6 10 -35 11 -70 3z"/>
<path d="M316 2635 c-3 -8 -1 -15 4 -15 6 0 10 7 10 15 0 8 -2 15 -4 15 -2 0
-6 -7 -10 -15z"/>
<path d="M2459 2633 c-8 -10 -9 -14 -2 -10 6 4 14 3 18 -3 10 -16 35 -12 35 6
0 8 -4 12 -10 9 -5 -3 -10 -1 -10 4 0 16 -16 13 -31 -6z"/>
<path d="M3920 2640 c-9 -6 -10 -10 -3 -10 6 0 15 5 18 10 8 12 4 12 -15 0z"/>
<path d="M7820 2640 c0 -5 14 -10 31 -10 17 0 28 4 24 10 -3 6 -17 10 -31 10
-13 0 -24 -4 -24 -10z"/>
<path d="M7975 2640 c-3 -5 -2 -10 4 -10 5 0 13 5 16 10 3 6 2 10 -4 10 -5 0
-13 -4 -16 -10z"/>
<path d="M8800 2640 c0 -5 5 -10 11 -10 5 0 7 5 4 10 -3 6 -8 10 -11 10 -2 0
-4 -4 -4 -10z"/>
<path d="M3308 2633 c7 -3 16 -2 19 1 4 3 -2 6 -13 5 -11 0 -14 -3 -6 -6z"/>
<path d="M3631 2624 c0 -11 3 -14 6 -6 3 7 2 16 -1 19 -3 4 -6 -2 -5 -13z"/>
<path d="M3230 2621 c0 -6 4 -13 10 -16 6 -3 7 1 4 9 -7 18 -14 21 -14 7z"/>
<path d="M3810 2621 c0 -7 -5 -9 -12 -5 -7 5 -8 3 -3 -5 5 -9 10 -10 18 -2 6
6 8 14 4 18 -4 3 -7 1 -7 -6z"/>
<path d="M3837 2613 c-4 -3 -7 -11 -7 -17 0 -6 5 -5 12 2 6 6 9 14 7 17 -3 3
-9 2 -12 -2z"/>
<path d="M3756 2602 c-3 -5 1 -9 9 -9 8 0 12 4 9 9 -3 4 -7 8 -9 8 -2 0 -6 -4
-9 -8z"/>
<path d="M3690 2580 c-12 -7 -10 -9 8 -7 12 0 22 5 22 9 0 11 -12 10 -30 -2z"/>
<path d="M3010 2553 c-11 -14 -19 -31 -17 -37 2 -6 31 -30 64 -52 34 -23 59
-44 56 -47 -3 -4 -12 1 -20 9 -14 13 -17 12 -31 -8 -25 -35 -25 -58 1 -67 27
-11 37 -6 37 19 0 10 9 22 20 25 11 3 20 11 20 16 0 5 9 9 19 9 11 0 23 5 27
11 5 8 10 6 16 -6 8 -13 18 -15 47 -10 53 9 71 15 71 25 0 10 -76 26 -107 22
-12 -1 -24 2 -28 8 -3 5 -26 10 -50 10 -44 0 -61 16 -53 51 2 7 -8 15 -22 19
-14 4 -24 12 -22 18 3 19 -5 14 -28 -15z"/>
<path d="M2656 2543 c-4 -10 -4 -14 0 -11 4 4 15 3 26 -3 25 -13 35 -4 18 16
-17 20 -36 19 -44 -2z"/>
<path d="M3690 2556 c0 -2 7 -7 16 -10 8 -3 12 -2 9 4 -6 10 -25 14 -25 6z"/>
<path d="M8380 2540 c0 -5 5 -10 11 -10 5 0 7 5 4 10 -3 6 -8 10 -11 10 -2 0
-4 -4 -4 -10z"/>
<path d="M3269 2523 c-13 -16 -12 -17 4 -4 16 13 21 21 13 21 -2 0 -10 -8 -17
-17z"/>
<path d="M3640 2524 c0 -2 9 -8 19 -14 14 -7 22 -7 27 2 4 7 3 8 -4 4 -7 -4
-12 -3 -12 2 0 5 -7 9 -15 9 -8 0 -15 -2 -15 -3z"/>
<path d="M3755 2500 c-2 -3 5 -7 16 -7 10 -1 19 2 19 6 0 9 -29 10 -35 1z"/>
<path d="M3236 2478 c3 -5 10 -6 15 -3 13 9 11 12 -6 12 -8 0 -12 -4 -9 -9z"/>
<path d="M2350 2403 c0 -7 5 -15 11 -19 8 -4 7 -9 -2 -15 -10 -6 -10 -9 -2 -9
19 0 22 14 7 35 -8 10 -14 14 -14 8z"/>
<path d="M3790 2400 c0 -5 5 -10 11 -10 5 0 7 5 4 10 -3 6 -8 10 -11 10 -2 0
-4 -4 -4 -10z"/>
<path d="M5178 2391 c12 -7 62 -4 62 5 0 2 -17 4 -37 4 -24 0 -33 -3 -25 -9z"/>
<path d="M3250 2383 c0 -5 12 -13 26 -20 26 -12 26 -12 9 7 -18 20 -35 26 -35
13z"/>
<path d="M3830 2381 c0 -6 4 -13 10 -16 6 -3 7 1 4 9 -7 18 -14 21 -14 7z"/>
<path d="M8667 2383 c-14 -13 -6 -42 15 -57 31 -22 45 -20 24 3 -9 10 -16 22
-15 27 5 29 -8 44 -24 27z"/>
<path d="M5195 2370 c-7 -11 -3 -12 36 -15 16 -1 26 3 26 12 0 15 -53 18 -62
3z"/>
<path d="M2587 2354 c-29 -16 -28 -34 1 -34 26 0 40 13 33 32 -5 15 -9 15 -34
2z"/>
<path d="M2653 2356 c-14 -17 -12 -63 4 -63 6 0 14 8 16 18 4 13 0 16 -12 12
-14 -6 -14 -4 2 14 9 11 17 23 17 26 0 11 -14 7 -27 -7z"/>
<path d="M3193 2353 c-15 -5 -17 -23 -4 -23 5 0 11 7 15 15 3 8 4 15 3 14 -1
0 -8 -3 -14 -6z"/>
<path d="M2447 2329 c4 -13 11 -18 20 -15 8 3 22 6 31 6 15 1 15 2 -1 11 -9 6
-26 12 -36 14 -14 3 -18 -1 -14 -16z"/>
<path d="M3789 2333 c-13 -16 -12 -17 4 -4 9 7 17 15 17 17 0 8 -8 3 -21 -13z"/>
<path d="M4320 2341 c0 -6 5 -13 10 -16 6 -3 10 1 10 9 0 9 -4 16 -10 16 -5 0
-10 -4 -10 -9z"/>
<path d="M8765 2340 c-3 -5 -2 -10 4 -10 5 0 13 5 16 10 3 6 2 10 -4 10 -5 0
-13 -4 -16 -10z"/>
<path d="M2760 2320 c-9 -6 -10 -10 -3 -10 6 0 15 5 18 10 8 12 4 12 -15 0z"/>
<path d="M4506 2309 c-21 -31 -20 -38 4 -36 23 1 33 23 21 44 -7 13 -11 12
-25 -8z m24 -8 c0 -5 -7 -11 -14 -14 -10 -4 -13 -1 -9 9 6 15 23 19 23 5z"/>
<path d="M8843 2319 c-10 -4 -12 -8 -5 -8 7 -1 11 -5 8 -10 -4 -5 0 -12 6 -15
7 -3 3 -3 -9 -1 -12 3 -24 1 -28 -5 -5 -8 -11 -8 -20 0 -18 15 -36 4 -28 -15
6 -18 46 -20 75 -4 11 6 18 7 15 2 -6 -10 19 -34 27 -26 9 9 7 25 -2 19 -5 -3
-9 1 -9 8 0 8 7 12 16 9 11 -3 10 0 -4 12 -19 16 -19 17 -1 30 18 13 18 14 -2
12 -11 0 -29 -4 -39 -8z"/>
<path d="M2477 2303 c-13 -12 15 -33 44 -33 22 0 27 -4 23 -17 -5 -15 -3 -15
10 1 20 24 6 36 -42 36 -20 0 -31 4 -27 10 7 11 2 13 -8 3z"/>
<path d="M4195 2302 c-11 -12 -4 -21 12 -15 12 5 14 3 8 -8 -8 -12 -6 -12 8 0
9 7 23 11 31 8 8 -3 16 0 19 6 3 8 -8 13 -34 13 -21 1 -41 -1 -44 -4z"/>
<path d="M4319 2293 c-11 -15 -11 -16 1 -5 18 15 34 16 24 0 -4 -7 -3 -8 5 -4
12 8 6 26 -8 26 -5 0 -15 -8 -22 -17z"/>
<path d="M4380 2295 c0 -7 6 -17 13 -23 9 -8 12 -5 12 12 0 13 -6 23 -12 23
-7 0 -13 -6 -13 -12z"/>
<path d="M3422 2280 c-3 -8 -7 -18 -9 -22 -4 -8 18 -5 34 5 7 4 22 3 33 -3 24
-13 39 -6 37 18 -1 23 -87 25 -95 2z"/>
<path d="M4030 2296 c0 -2 7 -7 16 -10 8 -3 12 -2 9 4 -6 10 -25 14 -25 6z"/>
<path d="M2587 2279 c7 -7 15 -10 18 -7 3 3 -2 9 -12 12 -14 6 -15 5 -6 -5z"/>
<path d="M3180 2265 l0 -25 20 20 c11 11 20 22 20 25 0 3 -9 5 -20 5 -15 0
-20 -7 -20 -25z"/>
<path d="M3256 2274 c-5 -12 -2 -15 10 -10 8 3 18 6 20 6 2 0 4 5 4 10 0 16
-27 11 -34 -6z"/>
<path d="M2417 2251 c-3 -12 -1 -21 3 -21 14 0 19 15 11 29 -6 9 -10 7 -14 -8z"/>
<path d="M2449 2268 c-6 -24 -5 -59 2 -63 5 -3 6 2 2 11 -5 12 -3 15 6 9 10
-6 11 -3 2 14 -15 27 -3 27 26 -1 19 -18 23 -19 17 -5 -7 20 -51 47 -55 35z"/>
<path d="M3380 2259 c0 -5 5 -7 10 -4 6 3 10 8 10 11 0 2 -4 4 -10 4 -5 0 -10
-5 -10 -11z"/>
<path d="M3914 2262 c-14 -9 -14 -45 -1 -53 13 -9 48 1 41 13 -3 5 -11 5 -19
-2 -14 -11 -30 2 -18 14 6 6 14 36 10 36 -1 0 -7 -4 -13 -8z"/>
<path d="M4330 2259 c0 -5 5 -7 10 -4 6 3 10 8 10 11 0 2 -4 4 -10 4 -5 0 -10
-5 -10 -11z"/>
<path d="M4257 2244 c2 -7 11 -10 19 -7 19 7 18 10 -5 16 -13 3 -18 1 -14 -9z"/>
<path d="M2751 2229 c-7 -19 -4 -59 4 -59 1 0 13 9 26 21 18 15 21 24 13 36
-16 26 -33 27 -43 2z"/>
<path d="M3965 2232 c1 -9 -6 -24 -17 -33 -18 -14 -18 -17 -4 -22 9 -4 15 -2
13 5 -1 7 5 12 13 13 18 0 22 42 5 49 -8 3 -12 -2 -10 -12z"/>
<path d="M4020 2215 c-8 -9 -8 -15 -2 -15 12 0 26 19 19 26 -2 2 -10 -2 -17
-11z"/>
<path d="M4116 2214 c-9 -24 -7 -44 5 -44 6 0 9 7 6 15 -4 8 -2 17 3 20 6 4
10 -3 10 -13 0 -11 7 -22 15 -26 15 -5 19 4 15 38 -1 12 2 16 11 11 7 -5 10
-4 6 1 -10 17 -64 15 -71 -2z"/>
<path d="M8660 2200 c0 -5 6 -10 14 -10 8 0 18 5 21 10 3 6 -3 10 -14 10 -12
0 -21 -4 -21 -10z"/>
<path d="M2875 2190 c27 -12 43 -12 25 0 -8 5 -22 9 -30 9 -10 0 -8 -3 5 -9z"/>
<path d="M4065 2180 c3 -5 8 -10 11 -10 2 0 4 5 4 10 0 6 -5 10 -11 10 -5 0
-7 -4 -4 -10z"/>
<path d="M2873 2164 c0 -16 13 -19 21 -5 3 5 0 11 -7 14 -8 3 -14 -1 -14 -9z"/>
<path d="M3195 2159 c-3 -4 2 -6 10 -5 21 3 28 13 10 13 -9 0 -18 -4 -20 -8z"/>
<path d="M4199 2153 c-13 -17 -13 -17 6 -3 11 8 22 16 24 17 2 2 0 3 -6 3 -6
0 -17 -8 -24 -17z"/>
<path d="M8675 2160 c3 -5 8 -10 11 -10 2 0 4 5 4 10 0 6 -5 10 -11 10 -5 0
-7 -4 -4 -10z"/>
<path d="M5176 2123 c-6 -14 -5 -15 5 -6 7 7 10 15 7 18 -3 3 -9 -2 -12 -12z"/>
<path d="M2460 2121 c0 -5 5 -13 10 -16 6 -3 10 -2 10 4 0 5 -4 13 -10 16 -5
3 -10 2 -10 -4z"/>
<path d="M4636 2105 c9 -38 12 -42 20 -21 4 11 0 24 -10 34 -16 16 -17 15 -10
-13z"/>
<path d="M2715 2110 c-3 -5 -3 -10 1 -10 4 0 -1 -7 -12 -15 -18 -14 -18 -14 3
-9 13 4 21 13 20 25 -1 22 -3 23 -12 9z"/>
<path d="M3220 2110 c-8 -5 -10 -10 -5 -10 6 0 17 5 25 10 8 5 11 10 5 10 -5
0 -17 -5 -25 -10z"/>
<path d="M3297 2096 c-4 -10 0 -12 14 -9 22 6 26 23 5 23 -8 0 -16 -6 -19 -14z"/>
<path d="M3167 2089 c-9 -6 -15 -14 -12 -20 4 -5 0 -9 -8 -9 -18 0 -30 -40
-14 -45 27 -9 106 -11 101 -3 -7 11 21 50 29 41 4 -3 7 5 7 19 0 22 -4 25 -25
20 -14 -2 -28 -8 -31 -13 -3 -5 -17 -8 -32 -8 -17 1 -21 3 -9 6 9 2 17 9 17
14 0 11 -1 11 -23 -2z m59 -57 c-4 -3 -14 2 -24 12 -16 18 -16 18 6 6 13 -6
21 -14 18 -18z"/>
<path d="M3418 2094 c-9 -8 3 -44 13 -38 11 7 12 44 1 44 -5 0 -11 -3 -14 -6z"/>
<path d="M2730 2071 c-8 -3 -16 -12 -18 -19 -1 -8 2 -11 7 -8 5 4 11 0 14 -6
3 -10 9 -9 21 3 14 13 15 18 4 26 -7 6 -20 8 -28 4z"/>
<path d="M3870 2055 c0 -8 4 -15 10 -15 5 0 7 7 4 15 -4 8 -8 15 -10 15 -2 0
-4 -7 -4 -15z"/>
<path d="M5117 2033 c-12 -12 -8 -20 18 -31 25 -12 30 -6 19 22 -6 16 -26 21
-37 9z"/>
<path d="M4905 2020 c-8 -13 3 -30 21 -30 18 0 18 14 0 29 -10 8 -16 9 -21 1z"/>
<path d="M5560 2000 c0 -16 0 -33 -1 -37 0 -4 4 -9 10 -11 7 -2 10 12 9 37 -2
47 -18 57 -18 11z"/>
<path d="M3950 2006 c0 -2 11 -6 25 -8 13 -3 22 -1 19 3 -5 9 -44 13 -44 5z"/>
<path d="M4730 1977 c0 -5 8 -7 18 -5 9 2 23 -3 30 -12 11 -13 11 -12 3 7 -11
21 -51 29 -51 10z"/>
<path d="M5626 1942 c-3 -5 1 -9 9 -9 8 0 15 4 15 9 0 4 -4 8 -9 8 -6 0 -12
-4 -15 -8z"/>
<path d="M4157 1863 c-13 -13 -7 -32 8 -27 8 4 15 12 15 20 0 15 -12 19 -23 7z"/>
<path d="M8648 1842 c-7 -10 -27 -27 -45 -37 -28 -17 -30 -20 -15 -31 9 -6 32
-9 53 -7 22 3 39 1 44 -6 9 -16 -13 -41 -39 -42 -12 0 -15 -3 -7 -6 15 -6 155
46 146 55 -3 3 -24 5 -45 3 -38 -2 -40 -1 -40 26 -1 26 -20 63 -33 63 -3 0
-12 -8 -19 -18z"/>
<path d="M8986 1790 c-18 -6 -18 -7 -2 -13 10 -4 25 -3 33 1 21 12 -5 22 -31
12z"/>
<path d="M4207 1759 c7 -7 15 -10 18 -7 3 3 -2 9 -12 12 -14 6 -15 5 -6 -5z"/>
<path d="M4601 1754 c0 -11 3 -14 6 -6 3 7 2 16 -1 19 -3 4 -6 -2 -5 -13z"/>
<path d="M8947 1309 c7 -7 15 -10 18 -7 3 3 -2 9 -12 12 -14 6 -15 5 -6 -5z"/>
</g>
</svg>
